<svg xmlns="http://www.w3.org/2000/svg" viewBox="71 191 852 626"><g fill="#FFFFFF"><polygon points="768,558 756,558 756,613 753,617 749,618 744,613 744,605 732,605 733,618 736,623 741,627 756,628 762,625 767,618 768,615"/><polygon points="698,558 689,562 683,571 682,575 682,612 686,621 692,626 697,628 710,628 718,624 721,621 724,614 724,609 725,608 725,577 721,566 715,560 710,558"/><polygon points="631,558 631,628 643,627 643,602 644,601 648,601 650,603 658,627 659,628 671,628 671,625 661,600 667,594 671,584 671,573 668,566 663,561 654,558"/><polygon points="842,557 833,561 830,564 826,574 826,612 829,620 834,625 841,628 855,628 860,626 865,621 868,614 868,604 856,604 855,614 852,617 849,618 843,617 839,613 839,573 844,568 851,568 855,572 856,582 868,582 868,573 865,565 859,559 854,557"/><polygon points="580,465 580,533 606,533 610,532 616,528 620,521 621,516 620,506 618,502 613,498 617,494 619,489 618,475 611,467 605,465"/><polygon points="874,464 874,533 887,533 887,515 892,505 894,506 905,533 917,533 917,530 901,495 901,493 915,466 915,464 903,464 901,466 899,472 888,493 886,487 886,464"/><polygon points="818,464 819,534 830,534 830,494 831,493 848,532 850,534 861,533 861,464 849,464 849,503 848,504 830,464"/><polygon points="777,464 760,534 772,534 774,530 775,522 777,520 793,520 797,534 809,534 792,464"/><polygon points="711,465 711,533 737,533 745,530 750,525 752,520 752,506 750,502 745,497 749,493 751,487 750,475 745,468 739,465 734,464"/><polygon points="672,464 665,467 660,472 657,479 657,519 660,526 665,531 672,534 685,534 692,531 697,525 699,520 699,479 694,469 690,466 685,464"/><polygon points="632,464 632,534 644,534 644,464"/><polygon points="877,370 877,439 888,439 888,398 889,397 907,439 919,439 919,370 907,370 907,405 908,406 907,410 902,401 889,370"/><polygon points="835,370 819,434 819,439 831,439 834,426 850,426 852,428 854,439 866,439 866,434 850,370"/><polygon points="744,370 744,439 755,439 756,438 756,370"/><polygon points="688,370 692,382 703,404 688,439 700,439 710,416 720,436 720,438 721,439 733,439 729,428 717,404 732,372 732,370 720,370 710,391 699,370"/><polygon points="646,371 646,439 679,439 680,438 680,428 659,428 658,427 658,411 659,410 677,410 677,399 659,399 658,398 658,383 659,382 679,382 679,370"/><polygon points="580,370 580,439 590,439 591,438 591,404 590,403 590,397 591,396 604,437 609,437 619,399 620,398 621,399 621,439 632,439 632,370 619,370 618,371 608,403 608,406 606,409 594,370"/><polygon points="785,369 776,373 770,381 769,385 769,426 772,432 777,437 782,439 794,440 803,437 809,431 811,426 811,415 799,415 798,425 793,429 786,429 782,425 781,422 781,388 782,384 787,380 795,381 798,385 799,394 811,394 811,385 808,377 802,371 797,369"/><polygon points="264,508 262,517 261,534 262,535 263,550 267,563 281,586 291,597 308,611 283,636 277,644 269,659 266,667 262,686 262,702 263,705 267,709 276,710 282,705 284,699 285,682 287,674 291,666 357,666 357,663 348,651 302,651 301,650 312,638 326,628 331,626 348,638 358,648 364,657 368,665 372,678 373,691 374,692 374,702 376,706 381,710 388,710 394,705 395,691 397,690 399,692 401,692 412,698 433,705 443,714 452,720 472,728 495,740 506,744 528,749 536,756 550,764 561,768 569,769 587,776 600,776 607,774 617,769 632,764 642,756 648,756 662,761 665,761 672,765 726,817 730,817 735,813 735,808 739,801 738,788 744,778 749,773 752,772 769,772 770,773 787,772 791,770 793,766 794,761 793,754 773,736 764,726 765,724 769,723 773,718 773,709 775,707 838,706 843,705 852,701 858,695 861,690 866,688 878,671 884,678 892,678 897,674 899,670 902,655 909,637 909,620 910,619 911,609 913,605 915,595 923,577 923,568 920,559 917,558 876,558 876,570 886,570 890,573 890,627 895,627 899,629 899,636 895,646 894,655 891,665 889,667 886,663 884,650 881,648 878,648 875,651 875,656 870,662 863,675 863,677 859,681 852,683 849,689 844,694 840,695 810,695 809,696 773,696 767,698 764,701 763,704 763,714 762,715 753,715 750,717 750,723 759,736 780,755 784,760 776,763 744,763 741,764 738,767 731,782 727,787 727,795 728,796 728,802 727,803 698,774 690,768 678,756 673,753 656,748 650,745 643,744 636,746 628,754 610,762 596,766 589,766 578,761 560,757 546,750 537,742 531,739 510,734 499,730 476,718 458,711 447,704 440,697 432,693 419,690 394,677 392,675 390,664 382,646 372,632 353,614 333,601 314,586 294,565 287,552 283,533 283,525 287,508 298,489 306,480 329,461 340,468 356,483 355,484 317,484 304,497 304,500 366,500 367,499 371,505 374,520 373,521 368,521 367,520 299,520 295,519 294,522 294,535 375,535 376,537 373,552 371,555 301,555 301,558 307,566 311,569 362,569 363,570 359,575 341,590 342,594 356,604 359,604 377,587 383,579 392,562 397,544 397,516 392,498 387,487 376,471 350,446 365,435 374,426 384,413 393,396 397,385 400,370 400,343 395,337 386,336 379,343 379,361 378,362 378,369 376,378 368,397 361,407 342,425 328,434 302,454 283,473 272,489"/><polygon points="260,324 256,326 252,332 252,361 253,362 254,374 258,388 264,401 272,413 286,428 301,441 304,441 319,430 320,426 304,414 300,410 301,408 345,408 356,396 356,393 287,393 282,385 278,372 279,371 366,371 366,356 362,355 276,355 275,354 275,342 274,341 274,331 273,329 266,324"/><polygon points="71,195 71,202 74,205 75,211 80,218 80,234 88,251 89,261 97,280 97,292 101,299 124,320 128,328 133,334 129,347 123,347 110,342 107,342 104,345 104,350 113,362 115,366 115,369 118,374 128,379 139,389 143,391 149,391 166,407 170,414 170,420 171,421 171,426 166,441 166,446 168,451 172,454 177,455 204,480 211,491 214,503 218,509 227,510 234,506 240,500 242,496 242,486 235,474 232,463 228,459 219,457 215,452 216,438 208,421 202,394 198,387 191,379 184,366 178,360 175,352 174,341 168,334 168,328 165,322 138,282 139,258 135,248 138,241 152,249 166,260 169,275 173,286 173,292 175,300 184,324 204,353 212,361 219,365 223,369 224,378 227,385 249,406 244,417 244,424 246,430 269,446 275,456 280,461 282,461 288,455 288,453 280,446 276,438 273,435 258,426 255,423 259,408 258,402 235,379 233,374 233,365 231,361 228,358 221,355 216,351 212,344 196,324 186,299 176,256 171,250 136,227 131,228 128,231 128,239 125,244 125,251 129,262 129,268 127,275 128,286 159,331 159,340 165,347 166,359 169,365 177,374 182,385 189,393 193,400 198,423 205,437 205,456 207,460 213,466 218,468 221,467 223,468 226,480 232,489 232,492 225,499 223,496 223,492 219,482 214,474 201,464 187,450 176,443 181,428 181,415 179,408 175,401 155,381 146,381 144,380 136,372 130,369 120,357 122,356 128,358 134,358 138,354 138,351 141,348 143,333 142,330 135,322 131,314 109,293 107,289 106,273 100,261 97,244 90,232 90,218 86,212 84,203 88,202 89,203 102,203 103,204 134,205 147,215 166,226 193,244 215,257 226,262 249,264 258,266 307,269 312,265 313,256 315,254 349,257 354,261 359,270 377,287 380,292 385,309 390,318 394,322 400,326 408,329 418,338 427,343 433,343 438,341 443,336 448,323 453,320 454,321 458,320 463,321 479,328 485,334 498,366 513,382 516,390 517,399 520,408 525,417 531,423 537,426 542,426 549,429 560,431 563,433 553,459 551,468 551,475 550,476 548,525 547,526 549,553 553,569 556,575 557,587 561,600 577,624 580,637 591,653 594,660 609,674 628,680 642,693 646,695 662,694 672,690 677,686 701,687 707,685 714,679 722,676 732,676 739,678 746,678 750,674 757,672 762,668 763,666 763,657 770,652 781,641 790,627 815,627 815,616 794,616 793,615 793,599 794,598 812,598 812,587 794,587 793,586 793,570 794,569 795,570 809,570 810,569 814,570 815,569 815,558 781,559 781,623 770,638 756,651 753,658 753,661 751,663 743,667 733,665 716,667 709,670 704,675 701,676 682,676 678,675 668,679 663,683 659,684 649,684 634,672 628,669 617,666 604,655 598,645 592,638 589,631 589,628 592,627 592,604 593,603 603,603 612,600 617,595 620,589 621,576 618,567 615,563 607,559 601,559 600,558 580,558 579,559 579,564 580,565 580,607 579,608 575,604 570,594 560,555 559,541 558,540 558,523 559,522 559,498 560,497 561,471 564,457 572,441 573,428 567,422 560,423 539,415 533,409 529,402 524,380 522,376 507,360 502,350 498,336 495,330 485,319 471,313 458,310 450,310 444,313 441,316 435,328 431,332 427,331 415,322 403,315 398,310 393,299 389,286 384,278 365,260 358,251 348,246 309,243 304,248 304,253 302,258 265,256 264,255 230,252 220,248 190,228 149,204 139,196 126,195 125,194 80,192 79,191 74,192"/></g></svg>