<svg xmlns="http://www.w3.org/2000/svg" width="1024" height="1024" viewBox="0 0 1024 1024"><g fill="#006680"><polygon points="509,581 508,582 507,582 506,583 505,583 503,585 503,586 502,587 502,822 503,823 503,824 504,825 504,826 506,828 507,828 508,829 510,829 511,830 602,830 603,829 605,829 607,827 608,827 608,826 610,824 610,586 606,582 605,582 604,581"/><polygon points="664,497 663,498 662,498 660,500 660,501 659,502 659,823 660,824 660,825 664,829 667,829 668,830 759,830 760,829 762,829 763,828 764,828 767,825 767,824 768,823 768,502 767,501 767,500 765,498 764,498 763,497"/><polygon points="822,394 820,396 819,396 817,398 817,399 816,400 816,402 815,403 815,780 816,781 816,783 815,784 815,808 816,809 816,818 815,819 815,820 816,821 816,824 820,828 821,828 822,829 823,829 824,830 916,830 917,829 920,829 924,825 924,824 925,823 925,399 924,398 924,397 921,394"/><polygon points="390,143 389,144 387,144 386,145 385,145 383,147 382,147 376,153 376,154 374,156 374,158 373,159 373,160 372,161 372,166 371,167 371,182 370,183 370,188 369,189 369,193 368,194 368,197 367,198 367,201 366,202 366,205 365,206 365,208 364,209 364,212 363,213 363,215 362,216 362,217 361,218 361,220 360,221 360,223 359,224 359,225 358,226 358,227 357,228 357,230 356,231 356,232 355,233 355,234 354,235 354,236 353,237 353,238 352,239 352,240 351,241 351,242 350,243 350,244 348,246 348,247 347,248 347,249 345,251 345,252 344,253 344,254 342,256 342,257 339,260 339,261 336,264 336,265 333,268 333,269 328,274 328,275 316,287 315,287 308,294 307,294 302,299 301,299 298,302 297,302 294,305 293,305 290,308 289,308 286,311 285,311 282,314 281,314 278,317 277,317 274,320 273,320 271,322 270,322 267,325 266,325 263,328 262,328 260,330 259,330 256,333 255,333 252,336 251,336 249,338 248,338 245,341 244,341 242,343 241,343 238,346 237,346 234,349 233,349 230,352 229,352 226,355 225,355 222,358 221,358 218,361 217,361 213,365 212,365 207,370 206,370 200,376 199,376 173,402 173,403 168,408 168,409 165,412 165,413 161,417 161,418 159,420 159,421 157,423 157,424 155,426 155,427 153,429 153,430 151,432 151,433 150,434 150,435 148,437 148,438 147,439 147,440 146,441 146,442 145,443 145,444 144,445 144,446 142,448 142,450 141,451 141,452 140,453 140,454 139,455 139,456 138,457 138,458 137,459 137,461 136,462 136,463 135,464 135,466 134,467 134,469 133,470 133,472 132,473 132,475 131,476 131,478 130,479 130,481 129,482 129,485 128,486 128,490 127,491 127,494 126,495 126,500 125,501 125,506 124,507 124,514 123,515 123,548 124,549 123,550 124,551 124,558 125,559 125,564 126,565 126,570 127,571 127,574 128,575 128,578 129,579 129,582 130,583 130,586 131,587 131,589 132,590 132,592 133,593 133,595 134,596 134,598 135,599 135,601 136,602 136,603 137,604 137,606 138,607 138,608 139,609 139,610 140,611 140,613 141,614 141,615 142,616 142,617 143,618 143,619 144,620 144,621 145,622 145,623 146,624 146,625 147,626 147,627 149,629 149,630 150,631 150,632 151,633 151,634 153,636 153,637 155,639 155,640 156,641 156,642 158,644 158,645 161,648 161,649 163,651 163,652 167,656 167,657 170,660 170,661 178,669 178,670 192,684 193,684 201,692 202,692 207,697 208,697 212,701 213,701 217,705 218,705 221,708 222,708 224,710 221,713 220,713 218,715 217,715 215,717 214,717 212,719 211,719 208,722 207,722 204,725 203,725 200,728 199,728 194,733 193,733 169,757 169,758 165,762 165,763 161,767 161,768 158,771 158,772 156,774 156,775 153,778 153,779 151,781 151,782 150,783 150,784 148,786 148,787 147,788 147,789 145,791 145,792 144,793 144,794 143,795 143,796 141,798 141,799 140,800 140,801 139,802 139,803 138,804 138,805 137,806 137,807 136,808 136,809 135,810 135,811 134,812 134,814 133,815 133,816 132,817 132,818 131,819 131,821 130,822 130,824 129,825 129,826 128,827 128,829 127,830 127,832 126,833 126,835 125,836 125,838 124,839 124,841 123,842 123,845 122,846 122,849 121,850 121,853 120,854 120,858 119,859 119,864 118,865 118,870 117,871 117,877 116,878 116,894 117,895 117,897 118,898 118,899 119,900 119,901 122,904 122,905 124,907 125,907 127,909 128,909 130,911 132,911 133,912 136,912 137,913 145,913 146,912 149,912 150,911 152,911 153,910 154,910 156,908 157,908 162,903 162,902 163,901 163,900 164,899 164,898 165,897 165,895 166,894 166,889 167,888 167,880 168,879 168,872 169,871 169,866 170,865 170,861 171,860 171,857 172,856 172,853 173,852 173,850 174,849 174,846 175,845 175,844 176,843 176,841 177,840 177,838 178,837 178,836 179,835 179,834 180,833 180,831 181,830 181,829 182,828 182,827 183,826 183,825 184,824 184,823 186,821 186,820 187,819 187,818 188,817 188,816 190,814 190,813 192,811 192,810 194,808 194,807 197,804 197,803 200,800 200,799 204,795 204,794 225,773 226,773 231,768 232,768 235,765 236,765 239,762 240,762 242,760 243,760 245,758 246,758 248,756 249,756 250,755 251,755 253,753 254,753 255,752 256,752 257,751 258,751 259,750 260,750 261,749 262,749 263,748 264,748 265,747 266,747 267,746 268,746 269,745 270,745 271,744 272,744 273,745 274,745 276,747 277,747 279,749 280,749 282,751 283,751 286,754 287,754 290,757 291,757 294,760 295,760 299,764 300,764 306,770 307,770 328,791 328,792 332,796 332,797 336,801 336,802 338,804 338,805 340,807 340,808 339,809 338,808 337,809 336,809 335,808 232,808 231,809 230,809 228,811 228,812 225,815 225,816 223,818 223,819 220,822 220,823 219,824 219,825 217,827 217,828 216,829 216,830 215,831 215,832 214,833 214,834 213,835 213,836 212,837 212,838 211,839 211,840 210,841 210,842 209,843 209,845 208,846 208,848 207,849 207,850 206,851 206,854 360,854 361,855 361,858 362,859 362,861 363,862 363,865 364,866 364,869 365,870 365,874 366,875 366,878 367,879 367,884 368,885 368,889 369,890 369,894 370,895 370,897 371,898 371,899 372,900 372,901 379,908 380,908 382,910 384,910 385,911 387,911 388,912 399,912 400,911 402,911 403,910 404,910 405,909 406,909 407,908 408,908 414,902 414,901 416,899 416,898 417,897 417,895 418,894 418,889 419,888 419,886 418,885 418,877 417,876 417,869 416,868 416,863 415,862 415,858 414,857 414,854 413,853 413,850 412,849 412,846 411,845 411,842 410,841 410,839 409,838 409,836 408,835 408,833 407,832 407,830 406,829 406,827 405,826 405,824 404,823 404,822 403,821 403,819 402,818 402,817 401,816 401,815 400,814 400,812 399,811 399,810 398,809 398,808 397,807 397,806 396,805 396,804 395,803 395,802 394,801 394,800 393,799 393,798 392,797 392,796 391,795 391,794 389,792 389,791 388,790 388,789 387,788 387,787 385,785 385,784 383,782 383,781 381,779 381,778 379,776 379,775 376,772 376,771 373,768 373,767 369,763 369,762 363,756 363,755 343,735 342,735 335,728 334,728 330,724 329,724 325,720 324,720 321,717 320,717 316,713 315,713 312,710 311,710 308,707 307,707 304,704 303,704 300,701 299,701 296,698 295,698 293,696 292,696 289,693 288,693 285,690 284,690 281,687 280,687 277,684 276,684 274,682 273,682 270,679 269,679 266,676 265,676 262,673 261,673 258,670 257,670 254,667 253,667 250,664 249,664 246,661 245,661 241,657 240,657 236,653 235,653 229,647 228,647 214,633 214,632 208,626 208,625 204,621 204,620 201,617 201,616 199,614 199,613 197,611 197,610 195,608 195,607 194,606 194,605 192,603 192,602 191,601 191,600 190,599 190,598 189,597 189,596 188,595 188,594 187,593 187,592 186,591 186,590 185,589 185,588 184,587 184,585 183,584 183,583 182,582 182,580 181,579 181,577 180,576 180,574 179,573 179,571 178,570 178,567 177,566 177,563 176,562 176,559 175,558 175,553 174,552 174,544 173,543 173,520 174,519 174,513 175,512 175,507 176,506 176,502 177,501 177,498 178,497 178,495 179,494 179,491 180,490 180,489 181,488 181,486 182,485 182,483 183,482 183,480 184,479 184,478 185,477 185,476 186,475 186,474 187,473 187,472 188,471 188,470 189,469 189,468 190,467 190,466 191,465 191,464 192,463 192,462 194,460 194,459 195,458 195,457 197,455 197,454 199,452 199,451 201,449 201,448 204,445 204,444 207,441 207,440 212,435 212,434 232,414 233,414 239,408 240,408 244,404 245,404 249,400 250,400 253,397 254,397 256,395 257,395 260,392 261,392 263,390 264,390 266,388 267,388 269,386 270,386 272,384 274,386 275,386 276,387 277,387 279,389 280,389 282,391 283,391 285,393 286,393 289,396 290,396 292,398 293,398 296,401 297,401 300,404 301,404 305,408 306,408 310,412 311,412 319,420 320,420 334,434 334,435 341,442 340,443 247,443 243,447 243,448 235,456 235,457 231,461 231,462 228,465 228,466 226,468 226,469 224,471 224,472 222,474 222,475 220,477 220,478 219,479 219,480 217,482 217,483 216,484 216,485 215,486 215,487 365,487 366,488 366,490 367,491 367,493 368,494 368,496 369,497 369,500 370,501 370,505 371,506 371,511 372,512 372,519 373,520 372,521 206,521 206,525 205,526 205,534 206,535 206,545 207,546 207,551 208,552 208,555 209,556 209,559 210,560 210,562 211,563 211,565 369,565 370,566 369,567 369,570 368,571 368,574 367,575 367,577 366,578 366,580 365,581 365,583 364,584 364,585 363,586 363,587 362,588 362,590 361,591 361,592 360,593 360,594 359,595 359,596 358,597 358,598 357,599 228,599 228,600 232,604 232,605 242,615 242,616 246,620 247,620 257,630 258,630 262,634 263,634 267,638 268,638 270,640 271,640 274,643 275,643 276,644 321,644 322,645 321,646 320,646 313,653 312,653 308,657 307,657 304,660 303,660 301,662 304,665 305,665 307,667 308,667 311,670 312,670 315,673 316,673 319,676 320,676 323,679 324,679 328,683 329,683 332,686 333,686 337,690 338,690 342,694 343,694 344,693 345,693 349,689 350,689 358,681 359,681 367,673 367,672 374,665 374,664 379,659 379,658 383,654 383,653 385,651 385,650 388,647 388,646 390,644 390,643 392,641 392,640 394,638 394,637 395,636 395,635 397,633 397,632 398,631 398,630 399,629 399,628 401,626 401,625 402,624 402,623 403,622 403,621 404,620 404,619 405,618 405,617 406,616 406,615 407,614 407,612 408,611 408,610 409,609 409,607 410,606 410,605 411,604 411,602 412,601 412,600 413,599 413,597 414,596 414,594 415,593 415,591 416,590 416,587 417,586 417,584 418,583 418,580 419,579 419,575 420,574 420,571 421,570 421,566 422,565 422,559 423,558 423,550 424,549 424,538 425,537 425,526 424,525 424,513 423,512 423,506 422,505 422,500 421,499 421,495 420,494 420,490 419,489 419,486 418,485 418,482 417,481 417,478 416,477 416,475 415,474 415,472 414,471 414,469 413,468 413,466 412,465 412,464 411,463 411,461 410,460 410,459 409,458 409,457 408,456 408,454 407,453 407,452 406,451 406,450 405,449 405,448 404,447 404,446 403,445 403,444 402,443 402,442 400,440 400,439 399,438 399,437 398,436 398,435 397,434 397,433 395,431 395,430 393,428 393,427 391,425 391,424 389,422 389,421 387,419 387,418 384,415 384,414 381,411 381,410 377,406 377,405 372,400 372,399 351,378 350,378 344,372 343,372 338,367 337,367 334,364 333,364 330,361 329,361 326,358 325,358 323,356 322,356 320,354 319,354 318,353 318,352 319,351 320,351 323,348 324,348 327,345 328,345 331,342 332,342 335,339 336,339 341,334 342,334 348,328 349,328 366,311 366,310 372,304 372,303 376,299 376,298 379,295 379,294 381,292 381,291 384,288 384,287 386,285 386,284 388,282 388,281 389,280 389,279 391,277 391,276 392,275 392,274 394,272 394,271 395,270 395,269 396,268 396,267 397,266 397,265 398,264 398,263 399,262 399,261 400,260 400,259 401,258 401,257 402,256 402,255 403,254 403,253 404,252 404,250 405,249 405,248 406,247 406,246 407,245 407,243 408,242 408,240 409,239 409,238 410,237 410,235 411,234 411,232 412,231 412,229 413,228 413,225 414,224 414,222 415,221 415,218 416,217 416,214 417,213 417,210 418,209 418,206 419,205 419,201 420,200 420,195 421,194 421,188 422,187 422,178 423,177 423,163 422,162 422,160 421,159 421,158 420,157 420,156 419,155 419,154 417,152 417,151 414,148 413,148 411,146 410,146 409,145 408,145 407,144 406,144 405,143"/><polygon points="131,143 130,144 128,144 127,145 126,145 125,146 124,146 117,153 117,154 116,155 116,156 115,157 115,158 114,159 114,162 113,163 113,178 114,179 114,187 115,188 115,195 116,196 116,200 117,201 117,205 118,206 118,210 119,211 119,214 120,215 120,218 121,219 121,221 122,222 122,225 123,226 123,228 124,229 124,231 125,232 125,234 126,235 126,237 127,238 127,240 128,241 128,242 129,243 129,245 130,246 130,247 131,248 131,250 132,251 132,252 133,253 133,254 134,255 134,257 135,258 135,259 136,260 136,261 137,262 137,263 138,264 138,265 139,266 139,267 140,268 140,269 142,271 142,272 143,273 143,274 144,275 144,276 146,278 146,279 147,280 147,281 149,283 149,284 151,286 151,287 153,289 153,290 155,292 155,293 158,296 158,297 162,301 162,302 166,306 166,307 178,319 178,320 182,324 183,324 191,332 192,332 196,336 197,336 198,335 199,335 202,332 203,332 205,330 206,330 209,327 210,327 213,324 214,324 217,321 218,321 221,318 222,318 225,315 226,315 229,312 230,312 233,309 234,309 236,307 237,307 240,304 241,304 242,303 241,302 240,302 238,300 237,300 234,297 233,297 230,294 229,294 226,291 225,291 219,285 218,285 205,272 205,271 200,266 200,265 197,262 197,261 194,258 194,257 192,255 192,254 190,252 190,251 188,249 188,248 187,247 187,246 186,245 186,244 185,243 185,242 184,241 184,240 183,239 183,238 182,237 182,236 181,235 181,234 182,233 320,233 320,232 321,231 321,230 322,229 322,228 323,227 323,226 324,225 324,224 325,223 325,221 326,220 326,219 327,218 327,216 328,215 328,213 329,212 329,210 330,209 330,207 331,206 331,203 332,202 332,198 333,197 333,194 334,193 334,188 168,188 167,187 167,186 166,185 166,179 165,178 165,171 164,170 164,163 163,162 163,159 162,158 162,157 161,156 161,155 160,154 160,153 154,147 153,147 151,145 150,145 149,144 147,144 146,143"/><polygon points="863,103 862,104 859,104 858,105 856,105 855,106 853,106 852,107 851,107 850,108 849,108 848,109 847,109 845,111 844,111 842,113 841,113 831,123 831,124 829,126 829,127 828,128 828,129 827,130 827,131 826,132 826,133 825,134 825,135 824,136 824,138 823,139 823,141 822,142 822,147 821,148 821,161 822,162 822,166 823,167 823,170 824,171 824,173 825,174 825,176 826,177 826,178 827,179 827,180 829,182 828,183 828,184 826,186 826,187 824,189 824,190 821,193 821,194 819,196 819,197 817,199 817,200 814,203 814,204 812,206 812,207 810,209 810,210 807,213 807,214 805,216 805,217 803,219 803,220 801,222 801,223 798,226 798,227 796,229 796,230 794,232 794,233 792,235 792,236 789,239 789,240 787,242 787,243 785,245 785,246 783,248 783,249 780,252 780,253 778,255 778,256 776,258 776,259 773,262 773,263 771,265 771,266 769,268 769,269 767,271 767,272 764,275 764,276 762,278 762,279 759,282 759,283 757,285 757,286 755,288 755,289 752,292 752,293 750,295 750,296 748,298 748,299 746,301 746,302 743,305 743,306 740,309 740,310 738,312 738,313 736,315 736,316 733,319 733,320 731,322 731,323 730,324 725,324 724,323 711,323 710,324 706,324 705,325 702,325 701,326 700,326 699,327 697,327 696,328 695,328 694,329 693,329 691,331 690,331 688,333 687,333 678,342 677,342 676,341 675,341 674,340 672,340 671,339 669,339 668,338 667,338 666,337 664,337 663,336 662,336 661,335 659,335 658,334 656,334 655,333 654,333 653,332 651,332 650,331 649,331 648,330 646,330 645,329 643,329 642,328 641,328 640,327 638,327 637,326 635,326 634,325 633,325 632,324 630,324 629,323 629,317 628,316 628,313 627,312 627,309 626,308 626,307 625,306 625,305 624,304 624,303 623,302 623,301 622,300 622,299 620,297 620,296 610,286 609,286 606,283 605,283 604,282 603,282 602,281 601,281 600,280 599,280 598,279 597,279 596,278 594,278 593,277 590,277 589,276 585,276 584,275 571,275 570,276 566,276 565,277 562,277 561,278 559,278 558,279 557,279 556,280 555,280 554,281 553,281 552,282 551,282 550,283 549,283 547,285 546,285 536,295 536,296 534,298 534,299 532,301 532,302 531,303 531,304 530,305 530,306 529,307 529,309 528,310 528,312 527,313 527,317 526,318 526,336 527,337 527,340 528,341 528,343 529,344 529,346 530,347 530,349 531,350 531,351 532,352 532,353 534,355 534,356 533,357 533,358 531,360 531,361 529,363 529,364 526,367 526,368 524,370 524,371 522,373 522,374 519,377 519,378 517,380 517,381 515,383 515,384 513,386 513,387 510,390 510,391 508,393 508,394 506,396 506,397 503,400 503,401 501,403 501,404 499,406 499,407 496,410 496,411 494,413 494,414 492,416 492,417 489,420 489,421 487,423 487,424 485,426 485,427 483,429 483,430 481,432 481,433 478,436 478,437 476,439 476,440 474,442 474,443 471,446 471,447 469,449 469,450 467,452 467,453 464,456 464,457 462,459 462,460 461,461 461,464 462,465 462,466 463,467 463,468 464,469 464,470 465,471 465,472 466,473 466,475 467,476 467,477 468,478 468,479 469,480 469,481 470,482 470,483 471,484 471,486 472,487 472,488 473,489 473,490 474,491 474,492 475,493 475,495 476,496 476,497 477,498 477,499 478,499 479,498 479,497 481,495 481,494 483,492 483,491 485,489 485,488 488,485 488,484 490,482 490,481 493,478 493,477 495,475 495,474 497,472 497,471 500,468 500,467 502,465 502,464 504,462 504,461 506,459 506,458 509,455 509,454 511,452 511,451 513,449 513,448 516,445 516,444 518,442 518,441 520,439 520,438 523,435 523,434 525,432 525,431 528,428 528,427 530,425 530,424 532,422 532,421 534,419 534,418 537,415 537,414 539,412 539,411 542,408 542,407 544,405 544,404 546,402 546,401 549,398 549,397 551,395 551,394 553,392 553,391 556,388 556,387 558,385 558,384 560,382 560,381 563,378 563,377 564,376 565,377 567,377 568,378 571,378 572,379 584,379 585,378 590,378 591,377 593,377 594,376 596,376 597,375 598,375 599,374 601,374 602,373 603,373 605,371 606,371 608,369 609,369 612,366 613,366 617,362 617,361 619,359 621,359 622,360 624,360 625,361 627,361 628,362 629,362 630,363 632,363 633,364 634,364 635,365 637,365 638,366 640,366 641,367 642,367 643,368 645,368 646,369 647,369 648,370 650,370 651,371 653,371 654,372 655,372 656,373 658,373 659,374 660,374 661,375 663,375 664,376 666,376 667,377 667,381 668,382 668,386 669,387 669,390 670,391 670,393 671,394 671,395 672,396 672,397 673,398 673,399 674,400 674,401 676,403 676,404 678,406 678,407 687,416 688,416 690,418 691,418 693,420 694,420 695,421 696,421 697,422 699,422 700,423 701,423 702,424 704,424 705,425 708,425 709,426 729,426 730,425 733,425 734,424 736,424 737,423 739,423 740,422 741,422 742,421 743,421 744,420 745,420 746,419 747,419 749,417 750,417 753,414 754,414 760,408 760,407 763,404 763,403 765,401 765,400 766,399 766,398 767,397 767,396 768,395 768,394 769,393 769,391 770,390 770,388 771,387 771,382 772,381 772,369 771,368 771,363 770,362 770,360 769,359 769,357 768,356 768,355 767,354 767,352 766,351 766,350 765,349 765,348 763,346 763,345 761,343 762,342 762,341 765,338 765,337 767,335 767,334 769,332 769,331 772,328 772,327 774,325 774,324 777,321 777,320 779,318 779,317 781,315 781,314 784,311 784,310 786,308 786,307 789,304 789,303 791,301 791,300 794,297 794,296 796,294 796,293 798,291 798,290 801,287 801,286 803,284 803,283 805,281 805,280 808,277 808,276 810,274 810,273 812,271 812,270 815,267 815,266 817,264 817,263 819,261 819,260 822,257 822,256 824,254 824,253 826,251 826,250 829,247 829,246 831,244 831,243 833,241 833,240 836,237 836,236 838,234 838,233 840,231 840,230 843,227 843,226 845,224 845,223 847,221 847,220 850,217 850,216 852,214 852,213 855,210 855,209 857,207 857,206 859,204 860,204 861,205 864,205 865,206 881,206 882,205 886,205 887,204 889,204 890,203 892,203 893,202 894,202 895,201 896,201 897,200 898,200 899,199 900,199 902,197 903,197 905,195 906,195 914,187 914,186 917,183 917,182 919,180 919,179 920,178 920,177 921,176 921,174 922,173 922,172 923,171 923,169 924,168 924,165 925,164 925,145 924,144 924,141 923,140 923,138 922,137 922,135 921,134 921,133 920,132 920,131 919,130 919,129 918,128 918,127 916,125 916,124 911,119 911,118 910,118 905,113 904,113 902,111 901,111 899,109 898,109 897,108 896,108 895,107 894,107 893,106 891,106 890,105 888,105 887,104 883,104 882,103"/></g></svg>