<svg xmlns="http://www.w3.org/2000/svg" width="1024" height="1536" viewBox="0 0 1024 1536"><g fill="#006680"><polygon points="322,714 321,715 310,715 309,716 302,716 301,717 294,717 293,718 290,718 289,719 285,719 284,720 282,720 281,721 279,721 278,722 277,721 276,722 274,722 273,723 271,723 270,724 267,724 266,725 265,725 264,726 263,726 262,727 259,727 258,728 257,728 256,729 255,729 254,730 252,730 250,732 248,732 247,733 246,733 245,734 244,734 243,735 242,735 241,736 240,736 239,737 238,737 237,738 236,738 234,740 233,740 232,741 231,741 229,743 228,743 227,744 226,744 224,746 223,746 221,748 220,748 219,749 218,749 218,750 217,751 216,751 215,752 214,752 209,757 208,757 205,760 204,760 184,780 184,781 178,787 178,788 175,791 175,792 174,793 173,793 173,794 172,795 172,796 169,799 169,800 167,802 167,803 166,804 166,805 164,807 164,808 163,809 163,810 161,812 161,813 160,814 160,815 159,816 159,817 158,818 158,819 157,820 157,821 156,822 156,823 155,824 155,825 154,826 154,827 153,828 153,829 152,830 152,832 150,834 150,836 149,837 149,839 148,840 148,843 147,844 147,845 146,846 146,848 145,849 145,851 144,852 144,854 143,855 143,858 142,859 142,861 141,862 141,865 140,866 140,869 139,870 139,875 138,876 138,879 137,880 137,888 136,889 136,901 135,902 135,925 136,926 136,941 137,942 137,946 138,947 138,956 139,957 139,961 140,962 140,964 141,965 141,970 142,971 142,974 143,975 143,979 144,980 144,982 145,983 145,984 146,985 146,989 147,990 147,992 148,993 148,995 149,996 149,997 150,998 149,999 150,1000 150,1001 151,1002 151,1003 152,1004 152,1007 153,1008 153,1009 154,1010 154,1011 155,1012 155,1015 157,1017 157,1019 158,1020 158,1022 159,1023 159,1025 160,1026 160,1027 161,1028 161,1029 162,1030 162,1031 163,1032 163,1033 164,1034 164,1036 165,1037 165,1038 166,1039 166,1040 167,1041 167,1042 168,1043 168,1044 169,1045 169,1046 170,1047 170,1048 171,1049 171,1050 172,1051 172,1053 174,1055 174,1056 175,1057 175,1058 176,1059 176,1060 177,1061 177,1062 178,1063 178,1064 180,1066 180,1067 181,1068 181,1069 182,1070 182,1071 183,1072 183,1073 184,1074 184,1075 185,1076 185,1077 186,1078 186,1079 188,1081 188,1082 189,1083 189,1084 191,1086 191,1087 193,1089 193,1090 194,1091 194,1092 195,1093 195,1094 197,1096 197,1097 199,1099 199,1100 200,1101 200,1102 202,1104 202,1105 204,1107 204,1108 207,1111 207,1112 208,1113 208,1114 209,1114 210,1115 210,1116 211,1117 211,1118 212,1119 212,1120 214,1122 214,1123 217,1126 217,1127 219,1129 219,1130 221,1132 221,1133 223,1135 223,1136 225,1138 225,1139 228,1142 228,1143 232,1147 232,1148 235,1151 235,1152 236,1152 237,1153 237,1154 240,1157 240,1158 242,1160 242,1161 243,1161 244,1162 244,1163 246,1165 246,1166 247,1166 249,1168 249,1169 252,1172 252,1173 257,1178 257,1179 260,1182 260,1183 268,1191 268,1192 272,1196 272,1197 280,1205 280,1206 284,1210 284,1211 294,1221 294,1222 299,1227 299,1228 302,1231 303,1231 305,1233 305,1234 311,1240 311,1241 338,1268 338,1269 378,1309 379,1309 391,1321 392,1321 402,1331 403,1331 417,1345 418,1345 427,1354 428,1354 439,1365 440,1365 447,1372 448,1372 452,1376 452,1377 453,1377 458,1382 459,1382 465,1388 466,1388 476,1398 477,1398 482,1403 483,1403 487,1407 488,1407 492,1411 493,1411 502,1420 503,1420 507,1424 508,1424 510,1426 514,1426 515,1425 516,1425 519,1422 520,1422 529,1413 530,1413 535,1408 536,1408 545,1399 546,1399 550,1395 551,1395 556,1390 557,1390 567,1380 568,1380 574,1374 575,1374 582,1367 583,1367 593,1357 594,1357 605,1346 606,1346 614,1338 615,1338 628,1325 629,1325 646,1308 647,1308 686,1269 686,1268 714,1240 714,1239 715,1238 716,1238 718,1236 718,1235 726,1227 726,1226 735,1217 735,1216 741,1210 741,1209 743,1207 744,1207 745,1206 745,1205 749,1201 749,1200 753,1196 753,1195 760,1188 760,1187 764,1183 764,1182 769,1177 769,1176 772,1173 772,1172 778,1166 778,1165 781,1162 781,1161 785,1157 785,1156 787,1154 787,1153 792,1148 792,1147 796,1143 796,1142 798,1140 798,1139 801,1136 801,1135 804,1132 804,1131 806,1129 806,1128 809,1125 809,1124 811,1122 811,1121 812,1120 812,1119 815,1116 815,1115 816,1114 816,1113 819,1110 819,1109 821,1107 821,1106 822,1105 822,1104 823,1103 823,1102 825,1100 825,1099 828,1096 828,1095 829,1094 829,1093 831,1091 831,1090 833,1088 833,1087 834,1086 834,1085 835,1084 835,1083 837,1081 837,1080 838,1079 838,1078 839,1077 839,1076 840,1075 840,1074 842,1072 842,1071 843,1070 843,1069 844,1068 844,1067 845,1066 845,1065 846,1064 846,1063 847,1062 847,1061 849,1059 849,1058 850,1057 850,1056 851,1055 851,1053 853,1051 853,1050 854,1049 854,1047 856,1045 856,1043 857,1042 857,1041 858,1040 858,1038 860,1036 860,1035 861,1034 861,1032 862,1031 862,1029 864,1027 864,1025 865,1024 865,1023 866,1022 866,1020 867,1019 867,1018 868,1017 868,1014 869,1013 869,1012 870,1011 870,1009 871,1008 871,1007 872,1006 872,1005 873,1004 873,1001 874,1000 874,999 875,998 875,995 876,994 876,992 877,991 877,988 878,987 878,986 879,985 879,983 880,982 880,978 881,977 881,975 882,974 882,970 883,969 883,965 884,964 884,960 885,959 885,956 886,955 886,951 887,950 887,948 886,947 887,946 887,938 888,937 888,924 889,923 889,905 888,904 888,894 887,893 888,892 888,889 887,888 887,883 886,882 886,879 885,878 885,872 884,871 884,869 883,868 883,864 882,863 882,860 881,859 881,857 880,856 880,853 879,852 879,851 878,850 878,847 877,846 877,844 876,843 876,842 875,841 875,839 874,838 875,837 874,836 874,835 873,834 873,833 872,832 872,830 871,829 871,828 870,827 870,826 869,825 869,824 868,823 868,822 867,821 867,820 866,819 866,818 865,817 865,816 864,815 864,814 862,812 862,811 861,810 861,809 860,808 860,807 859,806 859,805 857,803 857,802 854,799 854,798 852,796 852,795 850,793 850,792 846,788 846,787 841,782 841,781 819,759 818,759 816,757 815,757 811,753 810,753 808,751 807,751 805,749 804,749 801,746 800,746 799,745 798,745 796,743 795,743 794,742 793,742 791,740 790,740 789,739 788,739 787,738 786,738 784,736 783,736 782,735 780,735 779,734 778,734 776,732 774,732 773,731 772,731 771,730 770,730 769,729 768,729 767,728 764,728 763,727 762,727 761,726 760,726 759,725 756,725 755,724 754,724 753,723 750,723 749,722 747,722 746,721 743,721 742,720 741,720 740,719 734,719 733,718 730,718 729,717 726,717 725,716 715,716 714,715 704,715 703,714 680,714 679,715 668,715 667,716 656,716 655,717 651,717 650,718 647,718 646,719 641,719 640,720 637,720 636,721 634,721 633,722 630,722 629,723 627,723 626,724 624,724 623,725 620,725 619,726 618,726 617,727 615,727 614,728 613,728 612,729 611,729 610,730 608,730 607,731 606,731 605,732 603,732 602,733 601,733 600,734 599,734 598,735 597,735 596,736 595,736 594,737 593,737 592,738 591,738 590,739 589,739 587,741 586,741 585,742 584,742 582,744 581,744 580,745 579,745 577,747 576,747 575,748 574,748 571,751 570,751 568,753 567,753 562,758 561,758 558,761 557,761 542,776 541,776 541,777 531,787 531,788 528,791 528,792 527,793 526,793 526,794 524,796 524,797 521,800 521,801 520,802 520,803 516,807 516,808 515,809 515,810 514,811 514,812 512,814 510,812 510,811 508,809 508,808 506,806 506,805 504,803 504,802 502,800 502,799 500,797 500,796 498,794 498,793 497,793 496,792 496,791 494,789 494,788 493,788 492,787 492,786 485,779 485,778 473,766 472,766 467,761 466,761 462,757 461,757 459,755 458,755 454,751 453,751 450,748 449,748 448,747 447,747 446,746 445,746 443,744 442,744 440,742 439,742 438,741 437,741 436,740 435,740 433,738 432,738 431,737 430,737 429,736 427,736 426,735 425,735 423,733 422,733 421,732 418,732 417,731 416,731 415,730 414,730 413,729 412,729 411,728 409,728 408,727 407,727 406,726 403,726 402,725 401,725 400,724 398,724 397,723 395,723 394,722 392,722 391,721 390,722 389,721 387,721 386,720 384,720 383,719 378,719 377,718 374,718 373,717 369,717 368,716 357,716 356,715 346,715 345,714"/><polygon points="308,0 307,1 305,1 304,2 303,2 302,3 301,3 299,5 298,5 295,8 295,9 293,11 293,12 292,13 292,15 291,16 291,21 290,22 290,293 289,294 21,294 20,295 18,295 17,296 16,296 15,297 14,297 13,298 12,298 11,299 10,299 4,305 4,306 3,307 3,308 1,310 1,312 0,313 0,679 1,680 1,682 3,684 3,686 7,690 7,691 8,692 9,692 11,694 12,694 13,695 14,695 15,696 16,696 17,697 18,697 19,698 22,698 23,699 224,699 226,697 228,697 229,696 230,696 231,695 232,695 233,694 234,694 235,693 237,693 238,692 239,692 240,691 242,691 243,690 244,690 245,689 246,689 247,688 249,688 250,687 252,687 253,686 255,686 256,685 257,685 258,684 261,684 262,683 264,683 265,682 268,682 269,681 271,681 272,680 275,680 276,679 281,679 282,678 285,678 286,677 291,677 292,676 298,676 299,675 300,676 302,676 303,675 309,675 310,674 322,674 323,673 347,673 348,674 359,674 360,675 373,675 374,676 378,676 379,677 383,677 384,678 387,678 388,679 389,678 390,679 392,679 393,680 397,680 398,681 401,681 402,682 404,682 405,683 406,683 407,684 410,684 411,685 413,685 414,686 416,686 417,687 419,687 420,688 421,688 422,689 424,689 425,690 427,690 428,691 429,691 430,692 431,692 432,693 434,693 435,694 436,694 437,695 438,695 439,696 440,696 441,697 442,697 443,698 445,698 447,700 448,700 449,701 450,701 451,702 452,702 454,704 455,704 456,705 457,705 458,706 459,706 460,707 461,707 464,710 465,710 466,711 467,711 469,713 470,713 472,715 473,715 476,718 477,718 480,721 481,721 484,724 485,724 486,725 486,726 487,726 494,733 495,733 511,749 513,749 531,731 532,731 537,726 538,726 538,725 539,724 540,724 543,721 544,721 547,718 548,718 551,715 552,715 553,714 554,714 556,712 557,712 560,709 561,709 562,708 563,708 565,706 566,706 568,704 570,704 572,702 573,702 574,701 575,701 576,700 577,700 578,699 579,699 580,698 581,698 582,697 583,697 584,696 585,696 586,695 587,695 588,694 590,694 591,693 593,693 594,692 595,692 596,691 597,691 598,690 599,690 600,689 602,689 603,688 605,688 606,687 608,687 609,686 610,686 611,685 614,685 615,684 617,684 618,683 620,683 621,682 625,682 626,681 627,681 628,680 633,680 634,679 636,679 637,678 643,678 644,677 648,677 649,676 652,676 653,675 665,675 666,674 676,674 677,673 701,673 702,674 714,674 715,675 725,675 726,676 732,676 733,677 737,677 738,678 740,678 741,679 746,679 747,680 750,680 751,681 754,681 755,682 756,682 757,683 760,683 761,684 763,684 764,685 767,685 768,686 770,686 771,687 772,687 773,688 775,688 776,689 777,689 778,690 780,690 781,691 782,691 783,692 784,692 785,693 787,693 788,694 789,694 790,695 791,695 792,696 793,696 794,697 796,697 797,698 798,698 799,699 1000,699 1001,698 1004,698 1005,697 1007,697 1008,696 1009,696 1010,695 1011,695 1014,692 1015,692 1016,691 1016,690 1020,686 1020,685 1021,684 1021,683 1022,682 1022,680 1023,679 1023,314 1022,313 1022,310 1020,308 1020,307 1018,305 1018,304 1013,299 1012,299 1010,297 1009,297 1008,296 1006,296 1005,295 1002,295 1001,294 733,294 732,293 732,19 731,18 731,16 730,15 730,12 728,10 728,9 727,8 727,7 726,7 723,4 722,4 720,2 718,2 716,0 715,1 714,0"/></g></svg>