<svg xmlns="http://www.w3.org/2000/svg" width="1024" height="1536" viewBox="0 0 1024 1536"><g fill="#006680"><polygon points="430,1260 429,1261 427,1261 426,1262 424,1262 423,1263 421,1263 420,1264 418,1264 417,1265 416,1265 415,1266 413,1266 412,1267 410,1267 409,1268 407,1268 406,1269 405,1269 404,1270 402,1270 401,1271 400,1271 399,1272 397,1272 396,1273 395,1273 394,1274 393,1274 392,1275 390,1275 389,1276 388,1276 387,1277 386,1277 385,1278 384,1278 383,1279 381,1279 380,1280 379,1280 378,1281 377,1281 376,1282 375,1282 374,1283 373,1283 372,1284 371,1284 370,1285 369,1285 367,1287 366,1287 365,1288 364,1288 363,1289 362,1289 361,1290 360,1290 358,1292 357,1292 356,1293 355,1293 353,1295 352,1295 350,1297 349,1297 347,1299 346,1299 342,1303 341,1303 337,1307 336,1307 326,1317 326,1318 321,1323 321,1324 318,1327 318,1328 316,1330 316,1331 314,1333 314,1334 313,1335 313,1336 311,1338 311,1339 310,1340 310,1341 309,1342 309,1343 308,1344 308,1346 307,1347 307,1348 306,1349 306,1350 305,1351 305,1353 304,1354 304,1356 303,1357 303,1359 302,1360 302,1362 301,1363 301,1367 300,1368 300,1373 299,1374 299,1380 298,1381 298,1395 297,1396 297,1408 298,1409 298,1422 299,1423 299,1426 300,1427 300,1428 301,1429 301,1431 303,1433 303,1434 304,1435 304,1436 311,1443 312,1443 314,1445 315,1445 317,1447 319,1447 320,1448 322,1448 323,1449 326,1449 327,1450 697,1450 698,1449 701,1449 702,1448 704,1448 705,1447 706,1447 707,1446 708,1446 709,1445 710,1445 713,1442 714,1442 716,1440 716,1439 720,1435 720,1434 721,1433 721,1432 722,1431 722,1430 723,1429 723,1428 724,1427 724,1425 725,1424 725,1420 726,1419 726,1410 725,1409 725,1385 724,1384 724,1376 723,1375 723,1371 722,1370 722,1366 721,1365 721,1363 720,1362 720,1358 719,1357 719,1356 718,1355 718,1353 717,1352 717,1350 716,1349 716,1348 715,1347 715,1346 714,1345 714,1344 713,1343 713,1342 712,1341 712,1340 711,1339 711,1338 710,1337 710,1336 708,1334 708,1333 707,1332 707,1331 705,1329 705,1328 704,1327 704,1326 700,1322 700,1321 693,1314 693,1313 692,1313 690,1311 690,1310 689,1310 683,1304 682,1304 678,1300 677,1300 674,1297 673,1297 671,1295 670,1295 669,1294 668,1294 666,1292 665,1292 664,1291 663,1291 661,1289 660,1289 659,1288 658,1288 656,1286 655,1286 654,1285 653,1285 652,1284 651,1284 650,1283 649,1283 648,1282 647,1282 646,1281 645,1281 644,1280 643,1280 642,1279 641,1279 640,1278 639,1278 638,1277 636,1277 635,1276 634,1276 633,1275 632,1275 631,1274 629,1274 628,1273 626,1273 625,1272 624,1272 623,1271 622,1271 621,1270 619,1270 618,1269 616,1269 615,1268 614,1268 613,1267 611,1267 610,1266 608,1266 607,1265 605,1265 604,1264 602,1264 601,1263 600,1263 599,1262 597,1262 596,1261 594,1261 593,1260 590,1260 588,1262 587,1262 583,1266 582,1266 578,1270 577,1270 576,1271 575,1271 573,1273 572,1273 570,1275 569,1275 568,1276 567,1276 566,1277 565,1277 564,1278 563,1278 562,1279 561,1279 560,1280 559,1280 558,1281 556,1281 555,1282 554,1282 553,1283 551,1283 550,1284 548,1284 547,1285 545,1285 544,1286 542,1286 541,1287 538,1287 537,1288 532,1288 531,1289 525,1289 524,1290 516,1290 515,1291 509,1291 508,1290 500,1290 499,1289 493,1289 492,1288 489,1288 488,1287 484,1287 483,1286 480,1286 479,1285 477,1285 476,1284 474,1284 473,1283 471,1283 470,1282 469,1282 468,1281 466,1281 465,1280 464,1280 463,1279 462,1279 461,1278 460,1278 459,1277 458,1277 457,1276 456,1276 455,1275 454,1275 453,1274 452,1274 450,1272 449,1272 447,1270 446,1270 444,1268 443,1268 440,1265 439,1265 436,1262 435,1262 433,1260"/><polygon points="47,1100 46,1101 44,1101 43,1102 41,1102 40,1103 39,1103 38,1104 36,1104 35,1105 33,1105 32,1106 30,1106 29,1107 28,1107 27,1108 25,1108 24,1109 23,1109 22,1110 20,1110 19,1111 18,1111 17,1112 16,1112 15,1113 14,1113 13,1114 11,1114 10,1115 9,1115 8,1116 7,1116 6,1117 5,1117 4,1118 3,1118 2,1119 1,1119 0,1120 0,1252 6,1252 7,1253 261,1253 262,1252 266,1252 267,1251 269,1251 270,1250 271,1250 273,1248 274,1248 276,1246 277,1246 280,1243 280,1242 282,1240 282,1239 284,1237 284,1235 285,1234 285,1233 286,1232 286,1229 287,1228 287,1202 286,1201 286,1195 285,1194 285,1193 286,1192 285,1191 285,1188 284,1187 284,1184 283,1183 283,1181 282,1180 282,1177 281,1176 281,1175 280,1174 280,1172 279,1171 279,1170 278,1169 278,1168 277,1167 277,1166 276,1165 276,1164 275,1163 275,1162 274,1161 274,1160 273,1159 273,1158 270,1155 270,1154 269,1153 269,1152 260,1143 260,1142 256,1138 255,1138 251,1134 250,1134 247,1131 246,1131 244,1129 243,1129 241,1127 240,1127 238,1125 237,1125 236,1124 235,1124 234,1123 233,1123 231,1121 230,1121 229,1120 228,1120 227,1119 226,1119 225,1118 224,1118 223,1117 222,1117 221,1116 219,1116 218,1115 217,1115 216,1114 215,1114 214,1113 213,1113 212,1112 210,1112 209,1111 208,1111 207,1110 205,1110 204,1109 203,1109 202,1108 200,1108 199,1107 197,1107 196,1106 195,1106 194,1105 192,1105 191,1104 190,1104 189,1103 187,1103 186,1102 184,1102 183,1101 181,1101 180,1100 178,1100 176,1102 175,1102 171,1106 170,1106 168,1108 167,1108 165,1110 164,1110 162,1112 161,1112 160,1113 159,1113 158,1114 157,1114 156,1115 155,1115 154,1116 153,1116 152,1117 151,1117 150,1118 148,1118 147,1119 145,1119 144,1120 142,1120 141,1121 139,1121 138,1122 135,1122 134,1123 131,1123 130,1124 125,1124 124,1125 106,1125 105,1124 98,1124 97,1123 94,1123 93,1122 89,1122 88,1121 87,1121 86,1120 83,1120 82,1119 80,1119 79,1118 78,1118 77,1117 75,1117 74,1116 73,1116 72,1115 71,1115 70,1114 69,1114 68,1113 67,1113 65,1111 64,1111 63,1110 62,1110 60,1108 59,1108 56,1105 55,1105 50,1100"/><polygon points="844,1099 843,1100 842,1100 841,1101 839,1101 838,1102 836,1102 835,1103 833,1103 832,1104 830,1104 829,1105 828,1105 827,1106 825,1106 824,1107 822,1107 821,1108 819,1108 818,1109 817,1109 816,1110 815,1110 814,1111 812,1111 811,1112 810,1112 809,1113 808,1113 807,1114 806,1114 805,1115 803,1115 802,1116 801,1116 800,1117 799,1117 798,1118 797,1118 796,1119 795,1119 793,1121 792,1121 791,1122 790,1122 789,1123 788,1123 786,1125 785,1125 784,1126 783,1126 781,1128 780,1128 778,1130 777,1130 775,1132 774,1132 770,1136 769,1136 756,1149 756,1150 754,1152 754,1153 752,1155 752,1156 750,1158 750,1159 748,1161 748,1162 747,1163 747,1164 746,1165 746,1166 745,1167 745,1168 744,1169 744,1171 743,1172 743,1173 742,1174 742,1176 741,1177 741,1180 740,1181 740,1183 739,1184 739,1188 738,1189 738,1192 737,1193 737,1195 738,1196 737,1197 737,1203 736,1204 736,1223 737,1224 737,1230 738,1231 738,1234 739,1235 739,1236 740,1237 740,1238 741,1239 741,1240 743,1242 743,1243 747,1247 748,1247 750,1249 751,1249 752,1250 753,1250 754,1251 756,1251 757,1252 761,1252 762,1253 1019,1253 1020,1252 1023,1252 1023,1121 1022,1120 1021,1120 1020,1119 1019,1119 1017,1117 1015,1117 1014,1116 1013,1116 1012,1115 1011,1115 1010,1114 1009,1114 1008,1113 1006,1113 1005,1112 1004,1112 1003,1111 1002,1111 1001,1110 999,1110 998,1109 997,1109 996,1108 994,1108 993,1107 992,1107 991,1106 989,1106 988,1105 986,1105 985,1104 984,1104 983,1103 981,1103 980,1102 978,1102 977,1101 976,1101 975,1100 972,1100 968,1104 967,1104 964,1107 963,1107 961,1109 960,1109 958,1111 957,1111 956,1112 955,1112 953,1114 952,1114 951,1115 950,1115 949,1116 948,1116 947,1117 945,1117 944,1118 942,1118 941,1119 940,1119 939,1120 937,1120 936,1121 933,1121 932,1122 930,1122 929,1123 924,1123 923,1124 918,1124 917,1125 903,1125 902,1124 894,1124 893,1123 890,1123 889,1122 886,1122 885,1121 882,1121 881,1120 879,1120 878,1119 876,1119 875,1118 873,1118 872,1117 871,1117 870,1116 869,1116 868,1115 867,1115 866,1114 865,1114 864,1113 863,1113 862,1112 861,1112 860,1111 859,1111 857,1109 856,1109 854,1107 853,1107 850,1104 849,1104"/><polygon points="503,991 502,992 495,992 494,993 489,993 488,994 484,994 483,995 480,995 479,996 477,996 476,997 474,997 473,998 471,998 470,999 468,999 467,1000 466,1000 465,1001 464,1001 463,1002 461,1002 460,1003 459,1003 458,1004 457,1004 456,1005 455,1005 453,1007 452,1007 451,1008 450,1008 448,1010 447,1010 445,1012 444,1012 440,1016 439,1016 432,1023 431,1023 425,1029 425,1030 420,1035 420,1036 418,1038 418,1039 415,1042 415,1043 414,1044 414,1045 412,1047 412,1048 411,1049 411,1050 410,1051 410,1052 409,1053 409,1054 408,1055 408,1056 407,1057 407,1059 406,1060 406,1061 405,1062 405,1064 404,1065 404,1067 403,1068 403,1070 402,1071 402,1074 401,1075 401,1079 400,1080 400,1085 399,1086 399,1094 398,1095 398,1116 399,1117 399,1125 400,1126 400,1128 399,1129 400,1130 400,1135 401,1136 401,1141 402,1142 402,1145 403,1146 403,1150 404,1151 404,1154 405,1155 405,1158 406,1159 406,1161 407,1162 407,1164 408,1165 408,1167 409,1168 409,1170 410,1171 410,1173 411,1174 411,1175 412,1176 412,1177 413,1178 413,1180 414,1181 414,1182 415,1183 415,1184 416,1185 416,1186 417,1187 417,1189 418,1190 418,1191 420,1193 420,1194 421,1195 421,1196 422,1197 422,1198 423,1199 423,1200 425,1202 425,1203 427,1205 427,1206 429,1208 429,1209 431,1211 431,1212 434,1215 434,1216 439,1221 439,1222 454,1237 455,1237 460,1242 461,1242 463,1244 464,1244 466,1246 467,1246 469,1248 470,1248 471,1249 472,1249 473,1250 474,1250 475,1251 476,1251 477,1252 478,1252 479,1253 480,1253 481,1254 483,1254 484,1255 486,1255 487,1256 489,1256 490,1257 492,1257 493,1258 498,1258 499,1259 526,1259 527,1258 530,1258 531,1257 533,1257 534,1256 537,1256 538,1255 539,1255 540,1254 542,1254 543,1253 544,1253 545,1252 546,1252 547,1251 548,1251 549,1250 550,1250 551,1249 552,1249 554,1247 555,1247 556,1246 557,1246 559,1244 560,1244 562,1242 563,1242 567,1238 568,1238 586,1220 586,1219 589,1216 589,1215 592,1212 592,1211 595,1208 595,1207 596,1206 596,1205 598,1203 598,1202 600,1200 600,1199 601,1198 601,1197 602,1196 602,1195 604,1193 604,1192 605,1191 605,1189 606,1188 606,1187 607,1186 607,1185 608,1184 608,1183 609,1182 609,1181 610,1180 610,1178 611,1177 611,1176 612,1175 612,1173 613,1172 613,1171 614,1170 614,1168 615,1167 615,1165 616,1164 616,1161 617,1160 617,1158 618,1157 618,1154 619,1153 619,1151 620,1150 620,1146 621,1145 621,1140 622,1139 622,1133 623,1132 623,1126 624,1125 624,1116 625,1115 625,1096 624,1095 624,1090 623,1089 623,1088 624,1087 623,1086 623,1082 622,1081 622,1076 621,1075 621,1072 620,1071 620,1069 619,1068 619,1066 618,1065 618,1063 617,1062 617,1060 616,1059 616,1058 615,1057 615,1056 614,1055 614,1054 613,1053 613,1052 612,1051 612,1050 611,1049 611,1048 610,1047 610,1046 608,1044 608,1043 607,1042 607,1041 604,1038 604,1037 601,1034 601,1033 595,1027 595,1026 594,1025 593,1025 584,1016 583,1016 580,1013 579,1013 577,1011 576,1011 574,1009 573,1009 571,1007 570,1007 569,1006 568,1006 567,1005 566,1005 565,1004 564,1004 563,1003 562,1003 561,1002 560,1002 559,1001 558,1001 557,1000 555,1000 554,999 553,999 552,998 549,998 548,997 547,997 546,996 543,996 542,995 539,995 538,994 534,994 533,993 527,993 526,992 519,992 518,991"/><polygon points="901,878 900,879 892,879 891,880 887,880 886,881 883,881 882,882 880,882 879,883 877,883 876,884 874,884 873,885 871,885 870,886 869,886 868,887 867,887 866,888 865,888 864,889 863,889 862,890 861,890 859,892 858,892 856,894 855,894 852,897 851,897 846,902 845,902 838,909 838,910 834,914 834,915 831,918 831,919 829,921 829,922 828,923 828,924 826,926 826,927 825,928 825,929 824,930 824,931 823,932 823,934 822,935 822,936 821,937 821,939 820,940 820,941 819,942 819,946 818,947 818,950 817,951 817,957 816,958 816,984 817,985 817,994 818,995 818,999 819,1000 819,1005 820,1006 820,1009 821,1010 821,1013 822,1014 822,1016 823,1017 823,1020 824,1021 824,1022 825,1023 825,1025 826,1026 826,1028 827,1029 827,1031 828,1032 828,1033 829,1034 829,1035 830,1036 830,1037 831,1038 831,1039 832,1040 832,1041 833,1042 833,1043 834,1044 834,1045 835,1046 835,1047 836,1048 836,1049 838,1051 838,1052 840,1054 840,1055 842,1057 842,1058 844,1060 844,1061 848,1065 848,1066 863,1081 864,1081 867,1084 868,1084 870,1086 871,1086 873,1088 874,1088 875,1089 876,1089 878,1091 879,1091 880,1092 882,1092 883,1093 884,1093 885,1094 887,1094 888,1095 891,1095 892,1096 894,1096 895,1097 900,1097 901,1098 916,1098 917,1097 922,1097 923,1096 926,1096 927,1095 929,1095 930,1094 932,1094 933,1093 934,1093 935,1092 937,1092 938,1091 939,1091 941,1089 942,1089 943,1088 944,1088 945,1087 946,1087 949,1084 950,1084 953,1081 954,1081 960,1075 961,1075 961,1074 968,1067 968,1066 972,1062 972,1061 975,1058 975,1057 977,1055 977,1054 979,1052 979,1051 980,1050 980,1049 982,1047 982,1046 983,1045 983,1044 984,1043 984,1042 985,1041 985,1040 986,1039 986,1038 987,1037 987,1036 988,1035 988,1034 989,1033 989,1032 990,1031 990,1029 991,1028 991,1026 992,1025 992,1023 993,1022 993,1021 994,1020 994,1018 995,1017 995,1014 996,1013 996,1010 997,1009 997,1006 998,1005 998,1001 999,1000 999,994 1000,993 1000,990 1001,989 1001,954 1000,953 1000,948 999,947 999,944 998,943 998,941 997,940 997,938 996,937 996,936 995,935 995,933 994,932 994,931 993,930 993,929 992,928 992,927 991,926 991,925 990,924 990,923 988,921 988,920 986,918 986,917 983,914 983,913 978,908 978,907 977,906 976,906 968,898 967,898 964,895 963,895 961,893 960,893 958,891 957,891 956,890 955,890 954,889 953,889 952,888 951,888 950,887 949,887 948,886 947,886 946,885 944,885 943,884 942,884 941,883 939,883 938,882 935,882 934,881 931,881 930,880 927,880 926,879 918,879 917,878"/><polygon points="106,878 105,879 97,879 96,880 93,880 92,881 89,881 88,882 85,882 84,883 82,883 81,884 80,884 79,885 77,885 76,886 75,886 74,887 73,887 72,888 71,888 70,889 69,889 68,890 67,890 66,891 65,891 64,892 63,892 60,895 59,895 57,897 56,897 51,902 50,902 48,904 48,905 46,907 45,907 44,908 44,909 39,914 39,915 36,918 36,919 35,920 35,921 33,923 33,924 31,926 31,927 30,928 30,929 29,930 29,931 28,932 28,934 27,935 27,936 26,937 26,939 25,940 25,942 24,943 24,945 23,946 23,950 22,951 22,958 21,959 21,989 22,990 22,996 23,997 23,1002 24,1003 24,1005 25,1006 25,1010 26,1011 26,1014 27,1015 27,1017 28,1018 28,1020 29,1021 29,1023 30,1024 30,1026 31,1027 31,1028 32,1029 32,1031 33,1032 33,1033 34,1034 34,1035 35,1036 35,1037 36,1038 36,1039 37,1040 37,1042 38,1043 38,1044 40,1046 40,1047 41,1048 41,1049 43,1051 43,1052 44,1053 44,1054 46,1056 46,1057 49,1060 49,1061 52,1064 52,1065 57,1070 57,1071 64,1078 65,1078 69,1082 70,1082 73,1085 74,1085 76,1087 77,1087 78,1088 79,1088 81,1090 83,1090 85,1092 86,1092 87,1093 89,1093 90,1094 92,1094 93,1095 95,1095 96,1096 99,1096 100,1097 105,1097 106,1098 123,1098 124,1097 127,1097 128,1096 131,1096 132,1095 135,1095 136,1094 138,1094 139,1093 140,1093 141,1092 142,1092 143,1091 144,1091 145,1090 146,1090 147,1089 148,1089 150,1087 151,1087 152,1086 153,1086 156,1083 157,1083 161,1079 162,1079 172,1069 172,1068 177,1063 177,1062 179,1060 179,1059 182,1056 182,1055 184,1053 184,1052 186,1050 186,1049 187,1048 187,1047 189,1045 189,1044 190,1043 190,1042 191,1041 191,1040 192,1039 192,1038 193,1037 193,1036 194,1035 194,1033 195,1032 195,1031 196,1030 196,1029 197,1028 197,1026 198,1025 198,1023 199,1022 199,1020 200,1019 200,1017 201,1016 201,1013 202,1012 202,1010 203,1009 203,1005 204,1004 204,999 205,998 205,995 206,994 206,986 207,985 207,958 206,957 206,953 205,952 206,951 205,950 205,948 204,947 204,943 203,942 203,941 202,940 202,938 201,937 201,935 200,934 200,933 199,932 199,931 198,930 198,929 197,928 197,927 196,926 196,925 195,924 195,923 194,922 194,921 192,919 192,918 189,915 189,914 183,908 183,907 177,901 176,901 171,896 170,896 168,894 167,894 165,892 164,892 163,891 162,891 161,890 160,890 159,889 158,889 156,887 154,887 153,886 152,886 151,885 149,885 148,884 146,884 145,883 144,883 143,882 140,882 139,881 135,881 134,880 131,880 130,879 129,880 128,879 123,879 122,878"/><polygon points="440,851 440,854 439,855 439,878 495,878 496,879 496,944 495,945 496,946 496,948 497,949 497,950 498,951 498,952 503,957 505,957 506,958 508,958 509,959 514,959 515,958 517,958 518,957 519,957 520,956 521,956 525,952 525,951 526,950 526,949 527,948 527,879 528,878 584,878 584,858 583,857 583,852 582,851"/><polygon points="463,803 458,808 458,809 455,812 455,813 452,816 452,817 451,818 451,819 449,821 449,822 448,823 448,824 447,825 447,826 446,827 446,828 445,829 445,830 577,830 577,828 576,827 576,826 575,825 575,824 574,823 574,822 572,820 572,819 571,818 571,817 569,815 569,814 566,811 566,810 562,806 562,805 560,803"/><polygon points="510,767 509,768 508,768 506,770 505,770 503,772 502,772 501,773 500,773 498,775 497,775 495,777 494,777 492,779 491,779 490,780 489,780 533,780 532,779 531,779 530,778 529,778 527,776 526,776 524,774 523,774 522,773 521,773 519,771 518,771 517,770 516,770 514,768 513,768 512,767"/><polygon points="489,669 490,669 491,670 492,670 494,672 495,672 497,674 498,674 499,675 500,675 502,677 503,677 504,678 505,678 507,680 508,680 509,681 510,681 511,682 513,682 514,681 515,681 517,679 518,679 519,678 520,678 522,676 523,676 524,675 525,675 527,673 528,673 529,672 530,672 532,670 533,670 534,669"/><polygon points="647,652 647,653 646,654 646,655 645,656 645,657 644,658 644,659 643,660 643,661 642,662 642,663 640,665 640,666 639,667 639,668 637,670 637,671 636,672 636,673 634,675 634,676 632,678 632,679 630,681 630,682 628,684 894,684 895,685 895,832 896,833 896,835 897,836 897,837 898,838 898,839 902,843 903,843 904,844 905,844 906,845 909,845 910,846 914,846 915,845 917,845 918,844 919,844 920,843 921,843 925,839 925,838 927,836 927,834 928,833 928,666 927,665 927,664 926,663 926,661 924,659 924,658 922,656 921,656 919,654 918,654 917,653 915,653 914,652"/><polygon points="109,652 108,653 106,653 105,654 104,654 103,655 102,655 99,658 99,659 97,661 97,663 96,664 96,665 95,666 95,833 96,834 96,836 97,837 97,838 100,841 100,842 101,842 103,844 105,844 106,845 108,845 109,846 113,846 114,845 117,845 118,844 119,844 120,843 121,843 125,839 125,838 126,837 126,836 127,835 127,833 128,832 128,685 129,684 395,684 395,683 394,683 393,682 393,681 391,679 391,678 389,676 389,675 387,673 387,672 385,670 385,669 384,668 384,667 383,666 383,665 381,663 381,662 380,661 380,660 379,659 379,658 378,657 378,656 377,655 377,654 376,653 376,652"/><polygon points="446,619 446,622 447,623 447,624 448,625 448,626 449,627 449,628 450,629 450,630 451,631 451,632 453,634 453,635 455,637 455,638 459,642 459,643 462,646 561,646 565,642 565,641 569,637 569,636 570,635 570,634 572,632 572,631 573,630 573,629 574,628 574,627 575,626 575,625 576,624 576,623 577,622 577,620 578,619"/><polygon points="619,546 618,547 616,547 615,548 614,548 613,549 612,549 610,551 609,551 607,553 607,554 606,555 606,556 605,557 605,559 604,560 604,598 603,599 603,605 602,606 602,612 601,613 601,616 600,617 600,621 599,622 599,624 598,625 598,627 597,628 597,629 596,630 596,632 595,633 595,634 594,635 594,636 593,637 593,638 592,639 592,640 591,641 591,642 590,643 590,644 588,646 588,647 586,649 586,650 583,653 583,654 578,659 578,660 566,672 565,672 560,677 559,677 556,680 555,680 552,683 551,683 549,685 548,685 546,687 545,687 544,688 543,688 541,690 540,690 539,691 538,691 536,693 535,693 533,695 532,695 531,696 530,696 528,698 527,698 526,699 525,699 524,700 523,700 521,702 520,702 519,703 518,703 517,704 516,704 515,705 514,705 513,706 512,706 511,707 510,706 509,706 507,704 506,704 505,703 504,703 503,702 502,702 501,701 500,701 498,699 497,699 496,698 495,698 494,697 493,697 491,695 490,695 489,694 488,694 486,692 485,692 483,690 482,690 481,689 480,689 478,687 477,687 475,685 474,685 472,683 471,683 468,680 467,680 464,677 463,677 460,674 459,674 458,673 458,672 457,672 445,660 445,659 441,655 441,654 438,651 438,650 436,648 436,647 434,645 434,644 433,643 433,642 431,640 431,639 430,638 430,637 429,636 429,635 428,634 428,632 427,631 427,630 426,629 426,628 425,627 425,624 424,623 424,622 423,621 423,618 422,617 422,613 421,612 421,606 420,605 420,600 419,599 419,560 418,559 418,557 417,556 417,555 416,554 416,553 412,549 411,549 410,548 408,548 407,547 398,547 397,548 395,548 393,550 392,550 390,552 390,553 388,555 388,556 387,557 387,561 386,562 386,600 387,601 387,607 388,608 388,613 389,614 389,618 390,619 390,622 391,623 391,626 392,627 392,629 393,630 393,633 394,634 394,636 395,637 395,638 396,639 396,641 397,642 397,643 398,644 398,646 399,647 399,648 400,649 400,650 401,651 401,652 402,653 402,654 403,655 403,656 404,657 404,658 406,660 406,661 407,662 407,663 409,665 409,666 411,668 411,669 413,671 413,672 419,678 419,679 425,685 425,686 427,688 428,688 439,699 440,699 446,705 447,705 449,707 450,707 453,710 454,710 456,712 457,712 459,714 460,714 462,716 463,716 465,718 466,718 467,719 468,719 469,720 470,720 472,722 474,722 475,723 476,723 477,724 477,725 476,726 475,726 473,728 472,728 471,729 470,729 469,730 468,730 466,732 465,732 464,733 463,733 461,735 460,735 458,737 457,737 455,739 454,739 451,742 450,742 447,745 446,745 441,750 440,750 432,758 431,758 425,764 425,765 419,771 419,772 416,775 416,776 412,780 412,781 410,783 410,784 408,786 408,787 406,789 406,790 405,791 405,792 403,794 403,795 402,796 402,797 401,798 401,799 400,800 400,801 399,802 399,803 398,804 398,805 397,806 397,808 396,809 396,810 395,811 395,813 394,814 394,815 393,816 393,818 392,819 392,821 391,822 391,825 390,826 390,828 389,829 389,832 388,833 389,834 388,835 388,838 387,839 387,845 386,846 386,855 385,856 385,889 386,890 386,892 387,893 387,894 392,899 393,899 394,900 395,900 396,901 407,901 408,900 409,900 410,899 411,899 416,894 416,892 417,891 417,867 418,866 418,853 419,852 419,848 420,847 420,841 421,840 421,836 422,835 422,832 423,831 423,829 424,828 424,826 425,825 425,823 426,822 426,820 427,819 427,818 428,817 428,816 429,815 429,814 430,813 430,812 431,811 431,810 432,809 432,808 434,806 434,805 436,803 436,802 438,800 438,799 441,796 441,795 446,790 446,789 456,779 457,779 457,778 458,777 459,777 464,772 465,772 468,769 469,769 472,766 473,766 476,763 477,763 478,762 479,762 481,760 482,760 484,758 485,758 487,756 488,756 490,754 491,754 492,753 493,753 494,752 495,752 497,750 498,750 499,749 500,749 502,747 503,747 504,746 505,746 506,745 507,745 508,744 509,744 511,742 512,743 513,743 514,744 515,744 516,745 517,745 519,747 520,747 521,748 522,748 524,750 525,750 526,751 527,751 528,752 529,752 530,753 531,753 533,755 534,755 536,757 537,757 539,759 540,759 541,760 542,760 545,763 546,763 547,764 548,764 550,766 551,766 555,770 556,770 559,773 560,773 568,781 569,781 571,783 571,784 580,793 580,794 583,797 583,798 586,801 586,802 588,804 588,805 590,807 590,808 591,809 591,810 592,811 592,812 593,813 593,814 594,815 594,816 595,817 595,818 596,819 596,820 597,821 597,822 598,823 598,825 599,826 599,829 600,830 600,832 601,833 601,835 602,836 602,841 603,842 603,847 604,848 604,853 605,854 605,867 606,868 606,891 607,892 607,893 608,894 608,895 612,899 613,899 614,900 615,900 616,901 618,901 619,902 624,902 625,901 628,901 629,900 630,900 636,894 636,892 637,891 637,889 638,888 638,857 637,856 637,847 636,846 636,840 635,839 635,835 634,834 634,831 633,830 633,827 632,826 632,824 631,823 631,820 630,819 630,817 629,816 629,814 628,813 628,811 627,810 627,809 626,808 626,807 625,806 625,804 624,803 624,802 623,801 623,800 622,799 622,798 621,797 621,796 619,794 619,793 618,792 618,791 617,790 617,789 615,787 615,786 613,784 613,783 610,780 610,779 608,777 608,776 603,771 603,770 597,764 597,763 593,759 592,759 583,750 582,750 578,746 577,746 573,742 572,742 570,740 569,740 567,738 566,738 563,735 562,735 561,734 560,734 558,732 557,732 556,731 555,731 553,729 552,729 551,728 550,728 549,727 548,727 547,726 546,726 545,725 547,723 548,723 549,722 550,722 551,721 552,721 554,719 555,719 556,718 557,718 559,716 560,716 561,715 562,715 564,713 565,713 567,711 568,711 570,709 571,709 574,706 575,706 578,703 579,703 585,697 586,697 603,680 603,679 606,676 606,675 610,671 610,670 613,667 613,666 615,664 615,663 616,662 616,661 618,659 618,658 619,657 619,656 620,655 620,654 621,653 621,652 622,651 622,650 624,648 624,646 625,645 625,643 626,642 626,641 627,640 627,639 628,638 628,636 629,635 629,633 630,632 630,629 631,628 631,626 632,625 632,622 633,621 633,619 634,618 634,613 635,612 635,606 636,605 636,596 637,595 637,560 636,559 636,557 635,556 635,555 633,553 633,552 631,550 630,550 629,549 628,549 627,548 625,548 624,547 620,547"/><polygon points="506,492 505,493 504,493 503,494 502,494 498,498 498,499 497,500 497,501 496,502 496,503 495,504 495,569 494,570 441,570 440,571 440,592 441,593 441,598 582,598 582,592 583,591 583,570 529,570 528,569 528,504 527,503 527,502 526,501 526,500 525,499 525,498 522,495 521,495 519,493 517,493 516,492"/><polygon points="429,256 428,257 426,257 425,258 422,258 421,259 420,259 419,260 417,260 416,261 414,261 413,262 411,262 410,263 408,263 407,264 406,264 405,265 403,265 402,266 400,266 399,267 397,267 396,268 395,268 394,269 392,269 391,270 390,270 389,271 387,271 386,272 385,272 384,273 383,273 382,274 380,274 379,275 378,275 377,276 376,276 375,277 374,277 373,278 371,278 369,280 367,280 366,281 365,281 364,282 363,282 362,283 361,283 359,285 358,285 357,286 356,286 355,287 354,287 353,288 352,288 351,289 350,289 348,291 347,291 345,293 344,293 342,295 341,295 340,296 339,296 336,299 335,299 333,301 332,301 328,305 327,305 312,320 312,321 308,325 308,326 305,329 305,330 303,332 303,333 301,335 301,336 300,337 300,338 299,339 299,340 297,342 297,343 296,344 296,346 295,347 295,348 294,349 294,350 293,351 293,353 292,354 292,355 291,356 291,358 290,359 290,361 289,362 289,364 288,365 288,369 287,370 287,374 286,375 286,378 285,379 285,385 284,386 284,397 283,398 283,427 284,428 284,432 285,433 285,435 286,436 286,438 287,439 287,440 289,442 289,443 292,446 292,447 294,449 295,449 299,453 300,453 302,455 303,455 304,456 306,456 307,457 309,457 310,458 313,458 314,459 707,459 708,458 713,458 714,457 716,457 717,456 718,456 719,455 720,455 721,454 722,454 724,452 725,452 728,449 729,449 729,448 733,444 733,443 735,441 735,440 736,439 736,438 737,437 737,435 738,434 738,432 739,431 739,427 740,426 740,397 739,396 739,390 738,389 738,388 739,387 738,386 738,382 737,381 737,376 736,375 736,371 735,370 735,367 734,366 734,364 733,363 733,360 732,359 732,358 731,357 731,355 730,354 730,352 729,351 729,350 728,349 728,348 727,347 727,346 726,345 726,343 725,342 725,341 723,339 723,338 722,337 722,336 721,335 721,334 719,332 719,331 717,329 717,328 713,324 713,323 709,319 709,318 697,306 696,306 692,302 691,302 689,300 688,300 684,296 683,296 681,294 680,294 679,293 678,293 676,291 675,291 673,289 672,289 671,288 670,288 669,287 668,287 667,286 666,286 664,284 663,284 662,283 661,283 660,282 659,282 658,281 657,281 656,280 655,280 654,279 652,279 651,278 650,278 649,277 648,277 647,276 646,276 645,275 643,275 642,274 641,274 640,273 639,273 638,272 637,272 636,271 634,271 633,270 631,270 630,269 629,269 628,268 626,268 625,267 624,267 623,266 621,266 620,265 618,265 617,264 615,264 614,263 613,263 612,262 610,262 609,261 607,261 606,260 604,260 603,259 601,259 600,258 598,258 597,257 595,257 594,256 593,256 592,257 591,257 586,262 585,262 582,265 581,265 580,266 579,266 577,268 576,268 574,270 573,270 572,271 571,271 569,273 568,273 567,274 566,274 565,275 563,275 562,276 561,276 560,277 559,277 558,278 556,278 555,279 554,279 553,280 551,280 550,281 548,281 547,282 544,282 543,283 540,283 539,284 536,284 535,285 533,285 532,286 525,286 524,287 516,287 515,288 514,287 500,287 499,286 495,286 494,285 488,285 487,284 485,284 484,283 481,283 480,282 477,282 476,281 474,281 473,280 471,280 470,279 469,279 468,278 466,278 465,277 464,277 463,276 462,276 461,275 460,275 459,274 457,274 455,272 454,272 453,271 452,271 451,270 450,270 449,269 448,269 446,267 445,267 443,265 442,265 440,263 439,263 436,260 435,260 433,258 432,258 430,256"/><polygon points="436,0 436,1 435,2 434,2 420,16 420,17 415,22 415,23 414,24 414,25 411,28 411,29 409,31 409,32 408,33 408,34 407,35 407,36 405,38 405,40 404,41 404,42 403,43 403,44 402,45 402,46 401,47 401,49 400,50 400,51 399,52 399,55 398,56 398,58 397,59 397,61 396,62 396,66 395,67 395,71 394,72 394,78 393,79 393,94 392,95 392,105 393,106 393,118 394,119 394,124 395,125 394,126 395,127 395,131 396,132 396,136 397,137 397,140 398,141 398,145 399,146 399,148 400,149 400,152 401,153 401,155 402,156 402,158 403,159 403,161 404,162 404,163 405,164 405,166 406,167 406,169 407,170 407,171 408,172 408,173 409,174 409,175 410,176 410,178 411,179 411,180 412,181 412,182 413,183 413,184 414,185 414,186 416,188 416,189 417,190 417,191 419,193 419,194 421,196 421,197 422,198 422,199 424,201 424,202 427,205 427,206 429,208 429,209 434,214 434,215 449,230 450,230 454,234 455,234 458,237 459,237 461,239 462,239 464,241 465,241 466,242 467,242 469,244 470,244 471,245 472,245 473,246 475,246 476,247 477,247 478,248 479,248 480,249 482,249 483,250 485,250 486,251 488,251 489,252 493,252 494,253 498,253 499,254 524,254 525,253 528,253 529,252 533,252 534,251 536,251 537,250 539,250 540,249 542,249 543,248 544,248 545,247 547,247 548,246 549,246 550,245 551,245 552,244 553,244 554,243 555,243 557,241 558,241 559,240 560,240 562,238 563,238 565,236 566,236 569,233 570,233 575,228 576,228 586,218 586,217 593,210 593,209 597,205 597,204 599,202 599,201 601,199 601,198 602,197 602,196 604,194 604,193 606,191 606,190 607,189 607,188 609,186 609,185 610,184 610,183 611,182 611,181 612,180 612,179 613,178 613,177 614,176 614,175 615,174 615,172 616,171 616,170 617,169 617,167 618,166 618,165 619,164 619,162 620,161 620,159 621,158 621,156 622,155 622,153 623,152 623,149 624,148 624,146 625,145 625,142 626,141 626,137 627,136 627,132 628,131 628,128 629,127 629,126 628,125 629,124 629,119 630,118 630,106 631,105 631,90 630,89 630,78 629,77 629,71 628,70 628,67 627,66 627,62 626,61 626,58 625,57 625,55 624,54 624,53 623,52 623,50 622,49 622,47 621,46 621,45 620,44 620,43 619,42 619,41 618,40 618,39 617,38 617,37 616,36 616,35 615,34 615,33 613,31 613,30 612,29 612,28 609,25 609,24 606,21 606,20 601,15 601,14 596,9 595,9 588,2 587,2 586,1 586,0"/></g></svg>