<svg xmlns="http://www.w3.org/2000/svg" width="1024" height="1536" viewBox="0 0 1024 1536"><g fill="#006680"><polygon points="260,572 259,573 257,573 256,574 254,574 251,577 251,578 250,579 249,579 249,580 247,582 247,584 245,586 245,587 243,589 243,590 242,591 242,592 241,593 241,594 239,596 239,597 237,599 237,600 236,601 236,602 235,603 235,604 233,606 233,607 231,609 231,610 230,611 230,612 229,613 229,614 228,615 228,616 226,618 226,619 224,621 224,622 223,623 223,624 222,625 222,626 220,628 220,629 219,630 219,631 217,633 217,634 216,635 216,636 215,637 215,638 213,640 213,641 212,642 212,643 211,644 211,645 210,646 210,647 209,648 209,649 206,652 206,654 204,656 204,657 203,658 203,659 201,661 201,662 200,663 200,664 199,665 199,666 198,667 198,668 196,670 196,671 195,672 195,673 194,674 194,675 192,677 192,678 191,679 191,680 189,682 189,684 188,685 188,686 185,689 185,690 184,691 184,692 183,693 183,694 182,695 182,696 180,698 180,699 179,700 179,701 177,703 177,705 175,707 175,708 174,709 174,710 173,711 173,712 171,714 171,715 170,716 170,717 169,718 169,719 167,721 167,722 166,723 166,724 165,725 165,726 164,727 164,728 163,729 163,730 162,731 161,731 161,733 160,734 160,735 159,736 159,737 158,738 158,739 156,741 156,742 154,744 154,746 153,747 153,748 151,750 151,751 150,752 150,753 149,754 149,755 148,756 148,757 147,758 147,759 145,761 145,762 144,763 144,764 142,766 142,768 141,769 141,770 139,772 139,773 138,774 138,775 137,776 137,777 136,778 136,779 135,780 135,781 133,783 133,784 132,785 132,786 131,787 131,788 130,789 130,790 129,791 129,792 128,793 128,794 126,796 126,797 125,798 125,799 124,800 124,801 123,802 123,803 121,805 121,806 120,807 120,808 119,809 119,811 118,812 118,813 116,815 116,816 115,817 115,818 113,820 113,822 112,823 112,824 111,825 111,826 109,828 109,829 108,830 108,831 107,832 107,834 105,836 105,837 104,838 104,839 102,841 102,843 101,844 101,845 100,846 100,847 99,848 99,849 97,851 97,852 96,853 96,854 95,855 95,857 94,858 94,859 92,861 92,862 91,863 91,864 90,865 90,866 89,867 89,868 88,869 88,870 87,871 87,872 86,873 86,874 85,875 85,876 84,877 84,878 83,879 83,880 82,881 82,882 81,883 81,884 80,885 80,886 79,887 79,888 78,889 78,890 77,891 77,892 76,893 76,894 75,895 75,896 74,897 74,898 73,899 73,901 72,902 72,903 71,904 71,905 70,906 70,907 69,908 69,909 68,910 68,911 67,912 67,914 66,915 66,916 65,917 65,918 64,919 64,920 62,922 62,924 61,925 61,926 60,927 60,928 59,929 59,931 58,932 58,933 57,934 57,935 55,937 55,939 54,940 54,942 53,943 53,944 52,945 52,946 50,948 50,950 49,951 49,953 48,954 48,956 47,957 47,958 46,959 46,960 44,962 44,964 43,965 43,967 42,968 42,969 41,970 41,972 40,973 40,974 39,975 39,976 38,977 38,978 37,979 38,980 36,982 36,984 35,985 35,986 34,987 34,989 33,990 33,991 32,992 32,993 31,994 32,995 31,996 31,997 30,998 30,1000 29,1001 29,1002 28,1003 28,1005 27,1006 27,1007 26,1008 26,1011 25,1012 25,1014 24,1015 24,1017 23,1018 23,1020 22,1021 22,1022 21,1023 21,1025 20,1026 20,1029 19,1030 19,1032 18,1033 18,1035 17,1036 17,1038 16,1039 16,1041 15,1042 15,1043 14,1044 14,1048 13,1049 13,1051 12,1052 12,1054 11,1055 11,1058 10,1059 10,1061 9,1062 9,1064 8,1065 8,1070 7,1071 7,1075 6,1076 6,1080 5,1081 5,1085 4,1086 4,1090 3,1091 3,1095 2,1096 2,1097 3,1098 2,1099 3,1100 2,1101 2,1105 1,1106 1,1118 0,1119 0,1146 1,1147 1,1161 2,1162 2,1168 3,1169 2,1170 3,1171 2,1172 3,1173 3,1177 4,1178 4,1181 5,1182 5,1186 6,1187 6,1189 7,1190 7,1192 8,1193 8,1196 9,1197 8,1198 9,1199 9,1201 10,1202 10,1204 11,1205 11,1206 12,1207 12,1209 13,1210 13,1212 14,1213 14,1214 15,1215 14,1216 15,1217 15,1218 16,1219 16,1220 17,1221 17,1222 18,1223 18,1224 19,1225 19,1227 20,1228 20,1229 21,1230 21,1231 22,1232 22,1233 23,1234 23,1235 24,1236 24,1237 25,1238 25,1239 26,1240 26,1241 27,1242 27,1243 28,1244 28,1245 29,1246 29,1247 31,1249 31,1250 33,1252 33,1253 34,1254 34,1255 36,1257 36,1258 37,1259 37,1260 40,1263 40,1264 43,1267 43,1268 44,1269 44,1270 45,1270 46,1271 46,1272 49,1275 49,1276 53,1280 53,1281 54,1281 55,1282 55,1283 60,1288 60,1289 61,1289 62,1290 62,1291 80,1309 81,1309 91,1319 92,1319 96,1323 97,1323 99,1325 100,1325 103,1328 104,1328 107,1331 108,1331 110,1333 111,1333 114,1336 115,1336 117,1338 118,1338 120,1340 122,1340 124,1342 125,1342 126,1343 126,1344 128,1344 129,1345 130,1345 132,1347 133,1347 134,1348 135,1348 136,1349 137,1349 138,1350 139,1350 141,1352 142,1352 143,1353 144,1353 145,1354 146,1354 147,1355 149,1355 150,1356 151,1356 152,1357 153,1357 154,1358 155,1358 156,1359 157,1359 158,1360 160,1360 161,1361 163,1361 164,1362 165,1362 166,1363 167,1363 168,1364 169,1364 170,1365 172,1365 173,1366 175,1366 176,1367 177,1367 178,1368 179,1368 180,1367 181,1368 182,1368 183,1369 185,1369 186,1370 188,1370 189,1371 191,1371 192,1372 194,1372 195,1373 200,1373 201,1374 204,1374 205,1375 209,1375 210,1376 213,1376 214,1377 218,1377 219,1378 223,1378 224,1379 236,1379 237,1380 286,1380 287,1379 294,1379 295,1378 296,1378 297,1379 298,1378 302,1378 303,1377 308,1377 309,1376 312,1376 313,1375 317,1375 318,1374 321,1374 322,1373 327,1373 328,1372 331,1372 332,1371 334,1371 335,1370 337,1370 338,1369 340,1369 341,1368 343,1368 344,1367 348,1367 349,1366 350,1366 351,1365 353,1365 354,1364 355,1364 356,1363 358,1363 359,1362 360,1362 361,1361 364,1361 365,1360 366,1360 367,1359 368,1359 369,1358 370,1358 371,1357 372,1357 373,1356 375,1356 376,1355 377,1355 378,1354 379,1354 380,1353 381,1353 382,1352 383,1352 384,1351 385,1351 386,1350 387,1350 388,1349 389,1349 390,1348 391,1348 393,1346 394,1346 395,1345 396,1345 397,1344 398,1344 400,1342 401,1342 402,1341 403,1341 406,1338 407,1338 408,1337 409,1337 411,1335 412,1335 413,1334 414,1334 416,1332 417,1332 419,1330 420,1330 424,1326 425,1326 427,1324 428,1324 432,1320 433,1320 438,1315 439,1315 446,1308 447,1308 450,1305 450,1304 468,1286 468,1285 472,1281 472,1280 475,1277 475,1276 480,1271 480,1270 481,1269 481,1268 484,1265 484,1264 486,1262 486,1261 488,1259 488,1258 490,1256 490,1255 491,1254 491,1253 492,1252 492,1251 494,1249 494,1248 496,1246 496,1245 497,1244 497,1243 498,1242 498,1241 499,1240 499,1239 500,1238 500,1237 501,1236 501,1235 503,1233 503,1231 504,1230 504,1228 505,1227 505,1226 506,1225 506,1224 507,1223 507,1222 508,1221 508,1220 509,1219 509,1216 510,1215 510,1214 511,1213 511,1211 512,1210 512,1208 513,1207 513,1206 514,1205 514,1203 515,1202 514,1201 515,1200 515,1198 516,1197 516,1194 517,1193 517,1190 518,1189 518,1187 519,1186 519,1182 520,1181 520,1178 521,1177 521,1176 520,1175 520,1174 521,1173 521,1169 522,1168 522,1162 523,1161 523,1155 524,1154 524,1140 525,1139 525,1125 524,1124 524,1106 523,1105 523,1099 522,1098 522,1092 521,1091 521,1083 520,1082 520,1078 519,1077 519,1074 518,1073 518,1070 517,1069 517,1065 516,1064 516,1061 515,1060 515,1058 514,1057 515,1056 514,1055 514,1052 513,1051 513,1049 512,1048 512,1044 511,1043 511,1041 510,1040 510,1038 509,1037 509,1035 508,1034 509,1033 508,1032 508,1030 507,1029 507,1027 506,1026 506,1025 505,1024 505,1022 504,1021 504,1018 503,1017 503,1014 502,1013 502,1011 501,1010 501,1009 500,1008 500,1007 499,1006 499,1004 498,1003 498,1001 497,1000 497,997 496,996 496,995 495,994 495,992 494,991 494,990 493,989 493,988 492,987 492,985 491,984 491,981 490,980 490,979 489,978 489,977 488,976 488,974 486,972 486,970 485,969 485,967 484,966 484,965 483,964 483,963 482,962 482,960 480,958 480,954 478,952 478,951 477,950 477,949 476,948 476,946 475,945 475,944 474,943 474,941 473,940 473,939 472,938 472,937 471,936 471,935 470,934 470,933 469,932 469,931 468,930 468,928 467,927 467,926 466,925 466,924 465,923 465,922 464,921 464,920 463,919 463,918 462,917 462,915 461,914 461,913 459,911 459,910 458,909 458,907 457,906 457,905 456,904 456,903 455,902 455,901 454,900 454,899 453,898 453,897 452,896 452,895 450,893 450,891 449,890 449,889 448,888 448,887 447,886 447,885 446,884 446,883 445,882 445,881 444,880 444,879 443,878 443,877 442,876 442,875 441,874 441,873 440,872 440,871 439,870 439,869 438,868 438,867 436,865 436,864 435,863 435,862 434,861 434,860 433,859 433,857 431,855 431,854 430,853 430,852 429,851 429,850 428,849 428,848 427,847 427,846 426,845 426,844 425,843 425,842 423,840 423,839 422,838 422,837 421,836 421,835 420,834 420,833 419,832 419,831 418,830 418,829 416,827 416,825 414,823 414,822 413,821 413,820 412,819 412,818 411,817 411,816 410,815 410,814 409,813 409,812 407,810 407,809 406,808 406,807 405,806 405,805 404,804 404,803 403,802 403,801 402,800 402,799 400,797 400,796 399,795 399,794 398,793 398,792 397,791 397,790 396,789 396,788 394,786 394,785 393,784 393,783 392,782 392,781 391,780 391,779 389,777 389,776 388,775 388,774 387,773 387,772 386,771 386,770 385,769 385,768 383,766 383,765 381,763 381,761 380,760 380,759 378,757 378,756 377,755 377,754 376,753 376,752 375,751 375,750 373,748 373,747 372,746 372,745 370,743 370,742 369,741 369,739 367,737 367,736 366,735 366,734 365,733 365,732 363,730 363,728 361,726 361,725 359,723 359,722 358,721 358,720 357,719 357,718 356,717 356,716 355,715 355,714 353,712 353,711 352,710 352,709 351,708 351,707 349,705 349,704 347,702 347,701 346,700 346,699 345,698 345,697 344,696 344,695 343,694 343,693 341,691 341,690 340,689 340,688 339,687 339,686 338,685 338,684 336,682 336,681 335,680 335,679 334,678 334,677 333,676 333,675 332,674 332,673 330,671 330,670 328,668 328,666 326,664 326,663 325,662 325,661 323,659 323,658 322,657 322,656 321,655 321,654 319,652 319,651 318,650 318,649 316,647 316,645 314,643 314,642 313,641 313,640 311,638 311,636 308,633 308,632 307,631 307,630 306,629 306,628 304,626 304,624 302,622 302,621 300,619 300,618 299,617 299,616 298,615 298,614 297,613 297,612 295,610 295,609 294,608 294,607 293,606 293,605 292,604 292,603 289,600 289,599 288,598 288,597 287,596 287,594 284,591 284,590 283,589 283,588 282,587 282,586 281,585 281,584 280,583 280,582 278,580 278,579 273,574 271,574 270,573 265,573 264,572 263,573 261,573"/><polygon points="798,414 797,415 784,415 783,416 778,416 777,417 773,417 772,418 768,418 767,419 764,419 763,420 760,420 759,421 758,420 757,421 754,421 753,422 749,422 748,423 747,423 746,424 744,424 743,425 741,425 740,426 738,426 737,427 734,427 733,428 731,428 730,429 729,429 728,430 726,430 725,431 723,431 722,432 721,432 720,433 717,433 716,434 715,434 714,435 713,435 712,436 710,436 708,438 705,438 704,439 703,439 702,440 701,440 699,442 698,442 697,443 695,443 694,444 693,444 692,445 691,445 690,446 689,446 688,447 687,447 686,448 685,448 683,450 681,450 680,451 679,451 678,452 677,452 676,453 675,453 674,454 673,454 672,455 671,455 670,456 669,456 668,457 667,457 665,459 664,459 663,460 662,460 661,461 660,461 659,462 658,462 657,463 656,463 654,465 653,465 652,466 651,466 650,467 649,467 648,468 647,468 645,470 644,470 643,471 642,471 641,472 640,472 639,473 638,473 637,474 636,474 635,475 634,475 632,477 631,477 630,478 629,478 628,479 626,479 624,481 623,481 622,482 621,482 620,483 619,483 618,484 617,484 615,486 614,486 613,487 612,487 611,488 610,488 609,489 608,489 607,490 606,490 605,491 604,491 603,492 602,492 600,494 599,494 598,495 596,495 595,496 594,496 593,497 592,497 591,498 590,498 589,499 588,499 587,500 586,500 585,501 584,501 583,502 582,502 581,503 579,503 577,505 575,505 574,506 573,506 572,507 571,507 570,508 568,508 567,509 566,509 565,510 564,510 563,511 562,511 561,512 560,512 559,513 558,513 557,514 554,514 553,515 552,515 551,516 550,516 549,517 548,517 547,518 545,518 544,519 543,519 542,520 541,519 540,520 539,520 538,521 537,521 536,522 535,522 534,523 532,523 531,524 530,524 529,525 527,525 526,526 525,525 523,527 520,527 519,528 518,528 517,529 515,529 514,530 512,530 511,531 509,531 508,532 507,531 506,532 504,532 503,533 501,533 500,534 498,534 497,535 495,535 494,536 490,536 489,537 487,537 486,538 485,537 484,538 482,538 481,539 479,539 478,540 474,540 473,541 470,541 469,542 466,542 465,543 464,542 463,542 462,543 458,543 457,544 449,544 448,545 444,545 443,546 438,546 437,547 430,547 429,548 419,548 418,547 417,548 382,548 381,547 372,547 371,546 365,546 364,545 360,545 359,544 352,544 351,543 344,543 343,542 338,542 337,541 336,541 336,609 337,610 337,611 339,613 339,614 340,615 340,616 341,617 341,618 342,619 342,620 344,622 344,623 345,624 345,625 347,627 347,628 348,629 348,630 350,632 350,633 351,634 351,635 352,636 352,637 353,638 353,639 355,641 355,642 356,643 356,644 357,645 357,646 358,647 358,648 360,650 360,651 361,652 361,653 363,655 363,657 364,658 364,659 367,662 367,663 369,665 369,667 370,668 370,669 372,671 372,672 373,673 373,674 375,676 375,677 376,678 376,679 377,680 377,681 380,684 380,686 381,687 381,688 383,690 383,691 384,692 384,693 385,694 385,695 386,696 386,697 387,698 387,699 389,701 389,702 391,704 391,705 392,706 392,707 393,708 393,709 394,710 394,711 396,713 396,714 397,715 397,716 398,717 398,718 399,719 399,720 401,722 401,723 402,724 402,725 404,727 404,729 406,731 406,732 408,734 408,735 409,736 409,737 410,738 410,739 411,740 411,741 413,743 413,744 414,745 414,746 415,747 415,748 416,749 416,750 417,751 417,752 419,754 419,755 421,757 421,759 422,760 422,761 424,763 424,764 426,766 426,767 427,768 427,769 428,770 428,771 429,772 429,773 430,774 430,775 432,777 432,778 433,779 433,781 435,783 435,784 437,786 437,787 438,788 438,789 439,790 439,791 440,792 440,793 442,795 442,796 443,797 443,798 445,800 445,802 446,803 446,804 448,806 448,807 449,808 449,809 451,811 451,813 453,815 453,816 454,817 454,818 455,819 455,820 456,821 456,822 457,823 457,824 459,826 459,827 460,828 460,829 461,830 461,831 462,832 462,833 463,834 463,835 465,837 465,838 466,839 466,840 468,842 468,843 469,844 469,845 470,846 470,847 471,848 471,849 473,851 473,853 474,854 474,855 475,856 475,857 476,858 476,859 478,861 478,862 479,863 479,864 480,865 480,866 482,868 482,869 483,870 483,871 484,872 484,873 485,874 485,875 486,876 486,877 487,878 487,879 488,880 488,881 490,883 490,884 491,885 491,887 493,889 493,890 494,891 494,892 495,893 495,894 496,895 496,896 497,897 497,899 499,901 499,902 500,903 500,904 502,906 502,908 503,909 503,910 504,911 504,912 505,913 505,914 506,915 506,916 507,917 507,918 508,919 508,920 509,921 509,922 510,923 510,924 511,925 511,926 512,927 512,928 513,929 513,930 514,931 514,932 515,933 515,935 517,937 517,938 518,939 518,940 519,941 519,942 520,943 520,945 521,946 521,947 522,948 522,949 523,950 523,951 524,952 524,953 525,954 525,955 526,956 526,958 527,959 527,960 528,961 528,962 529,963 529,964 530,965 530,966 531,967 531,968 532,969 532,971 533,972 533,973 534,974 534,975 535,976 535,977 536,978 536,980 537,981 537,983 539,985 539,987 540,988 540,989 541,990 541,992 543,994 543,997 544,998 544,999 545,1000 545,1002 547,1004 547,1006 548,1007 548,1008 549,1009 549,1012 550,1013 550,1015 551,1016 551,1017 552,1018 552,1019 553,1020 553,1023 554,1024 554,1025 555,1026 555,1029 556,1030 556,1031 557,1032 557,1034 558,1035 558,1037 559,1038 559,1039 560,1040 560,1042 561,1043 561,1044 560,1045 561,1046 561,1048 562,1049 562,1050 563,1051 563,1053 564,1054 564,1056 565,1057 565,1061 566,1062 566,1064 567,1065 566,1066 567,1067 567,1070 568,1071 568,1073 569,1074 569,1077 570,1078 570,1081 571,1082 571,1086 572,1087 572,1091 573,1092 573,1093 572,1094 573,1095 573,1100 574,1101 574,1111 575,1112 575,1142 574,1143 574,1154 573,1155 573,1159 572,1160 572,1162 573,1163 572,1164 572,1169 571,1170 571,1174 570,1175 570,1179 569,1180 569,1182 568,1183 568,1187 567,1188 567,1190 566,1191 566,1194 565,1195 565,1197 564,1198 564,1200 563,1201 563,1202 562,1203 562,1205 561,1206 561,1209 560,1210 560,1212 559,1213 559,1214 558,1215 558,1216 557,1217 557,1218 556,1219 556,1221 555,1222 555,1223 554,1224 554,1225 553,1226 553,1228 551,1230 551,1231 550,1232 550,1233 549,1234 549,1236 547,1238 547,1239 546,1240 546,1241 545,1242 545,1243 543,1245 543,1246 542,1247 542,1248 541,1249 541,1250 539,1252 539,1253 537,1255 537,1256 535,1258 535,1259 532,1262 532,1263 530,1265 530,1266 527,1269 527,1270 526,1271 526,1272 527,1273 529,1273 532,1276 533,1276 534,1277 535,1277 536,1278 537,1278 539,1280 540,1280 541,1281 542,1281 543,1282 544,1282 545,1283 546,1283 547,1284 548,1284 549,1285 550,1285 551,1286 552,1286 553,1287 554,1287 556,1289 558,1289 559,1290 560,1290 561,1291 562,1291 563,1292 564,1292 565,1293 566,1293 567,1294 568,1294 569,1295 571,1295 572,1296 574,1296 575,1297 577,1297 578,1298 579,1298 580,1299 582,1299 583,1300 584,1300 585,1301 586,1301 587,1302 591,1302 592,1303 594,1303 595,1304 596,1304 597,1305 600,1305 601,1306 602,1306 603,1307 605,1307 606,1308 607,1307 608,1308 611,1308 612,1309 615,1309 616,1310 619,1310 620,1311 624,1311 625,1312 628,1312 629,1313 633,1313 634,1314 643,1314 644,1315 650,1315 651,1316 657,1316 658,1317 668,1317 669,1318 704,1318 705,1317 717,1317 718,1316 724,1316 725,1315 730,1315 731,1314 739,1314 740,1313 743,1313 744,1312 747,1312 748,1311 752,1311 753,1310 756,1310 757,1309 760,1309 761,1308 763,1308 764,1307 765,1308 766,1307 768,1307 769,1306 771,1306 772,1305 774,1305 775,1304 778,1304 779,1303 781,1303 782,1302 784,1302 785,1301 787,1301 788,1300 790,1300 791,1299 793,1299 794,1298 795,1298 796,1297 797,1297 798,1296 800,1296 801,1295 803,1295 804,1294 805,1294 806,1293 807,1293 808,1292 809,1292 810,1291 811,1291 812,1290 813,1290 814,1289 816,1289 818,1287 820,1287 821,1286 822,1286 824,1284 826,1284 827,1283 828,1283 830,1281 831,1281 833,1279 834,1279 835,1278 837,1278 837,1277 838,1276 839,1276 840,1275 841,1275 843,1273 844,1273 845,1272 846,1272 848,1270 849,1270 851,1268 852,1268 854,1266 855,1266 856,1265 857,1265 861,1261 862,1261 864,1259 865,1259 868,1256 869,1256 870,1255 870,1254 871,1253 872,1253 874,1251 875,1251 885,1241 886,1241 903,1224 903,1223 907,1219 907,1218 912,1213 912,1212 916,1208 916,1207 920,1203 920,1202 923,1199 923,1198 924,1197 924,1196 928,1192 928,1191 929,1190 929,1189 932,1186 932,1185 933,1184 933,1183 934,1182 934,1181 936,1179 936,1178 938,1176 938,1175 939,1174 939,1173 940,1172 940,1171 941,1170 941,1169 943,1167 943,1166 944,1165 944,1164 945,1163 945,1162 946,1161 946,1160 947,1159 947,1158 948,1157 948,1156 949,1155 949,1154 950,1153 950,1152 951,1151 951,1149 952,1148 952,1147 953,1146 953,1145 954,1144 954,1143 955,1142 955,1140 957,1138 956,1137 957,1136 957,1134 958,1133 958,1131 959,1130 959,1129 960,1128 960,1126 961,1125 961,1123 962,1122 962,1120 963,1119 962,1118 963,1117 963,1114 964,1113 964,1110 965,1109 965,1105 966,1104 966,1103 967,1102 967,1097 968,1096 968,1091 969,1090 969,1081 970,1080 970,1072 971,1071 971,470 970,469 969,469 967,467 966,467 962,463 961,463 959,461 958,461 956,459 955,459 953,457 952,457 949,454 948,454 947,453 946,453 943,450 941,450 938,447 937,447 936,446 935,446 934,445 933,445 932,444 931,444 930,443 929,443 928,442 927,442 925,440 924,440 923,439 921,439 920,438 919,438 917,436 916,436 915,435 913,435 911,433 908,433 907,432 905,432 904,431 903,431 902,430 901,430 900,429 899,429 898,428 897,428 896,427 894,427 893,426 892,427 891,426 889,426 888,425 886,425 885,424 883,424 882,423 881,423 880,422 877,422 876,421 875,422 874,421 872,421 871,420 868,420 867,419 864,419 863,418 859,418 858,417 853,417 852,416 848,416 847,415 841,415 840,414 839,415 831,415 830,414"/><polygon points="336,210 336,495 339,495 340,496 347,496 348,497 351,497 352,498 356,498 357,499 363,499 364,500 369,500 370,501 377,501 378,502 389,502 390,503 399,503 400,502 411,502 412,503 413,502 425,502 426,501 433,501 434,500 439,500 440,499 445,499 446,498 451,498 452,497 460,497 461,496 465,496 466,495 469,495 470,494 473,494 474,493 476,493 477,492 481,492 482,491 484,491 485,490 486,491 487,490 489,490 490,489 492,489 493,488 496,488 497,487 498,487 499,486 502,486 503,485 504,486 505,485 507,485 508,484 509,484 510,483 512,483 513,482 514,482 515,481 517,481 518,480 521,480 522,479 524,479 525,478 526,478 527,477 528,477 529,476 531,476 532,475 533,475 534,474 536,474 537,473 539,473 540,472 541,472 542,471 543,471 544,470 545,470 546,469 548,469 549,468 550,468 551,467 553,467 554,466 555,466 556,465 557,465 558,464 559,464 560,463 561,463 562,462 564,462 565,461 566,461 568,459 569,459 570,458 571,458 572,457 574,457 575,456 576,456 577,455 578,455 579,454 580,454 581,453 582,453 583,452 584,452 585,451 586,451 587,450 588,450 589,449 590,449 592,447 594,447 595,446 596,446 598,444 599,444 600,443 601,443 602,442 603,442 604,441 605,441 606,440 607,440 608,439 609,439 610,438 611,438 613,436 614,436 615,435 616,435 617,434 618,434 619,433 620,433 621,432 622,432 623,431 624,431 625,430 626,430 628,428 629,428 630,427 631,427 632,426 633,426 634,425 635,425 636,424 637,424 638,423 639,423 641,421 642,421 643,420 644,420 645,419 646,419 647,418 648,418 649,417 650,417 651,416 652,416 653,415 654,415 655,414 656,414 657,413 658,413 660,411 661,411 662,410 664,410 665,409 666,409 667,408 668,408 669,407 670,407 671,406 672,406 673,405 674,405 675,404 676,404 677,403 678,403 679,402 680,402 682,400 684,400 685,399 686,399 687,398 689,398 691,396 692,396 693,395 695,395 696,394 697,394 698,393 700,393 701,392 702,392 703,391 704,391 705,390 707,390 709,388 712,388 713,387 715,387 716,386 717,386 718,385 719,385 720,384 723,384 724,383 725,383 726,382 729,382 730,381 733,381 734,380 736,380 737,379 738,379 739,378 742,378 743,377 746,377 747,376 749,376 750,375 751,376 752,376 753,375 755,375 756,374 759,374 760,373 763,373 764,372 770,372 771,371 777,371 778,370 789,370 790,369 799,369 800,368 826,368 827,369 828,369 829,368 835,368 836,369 843,369 844,370 854,370 855,371 860,371 861,372 865,372 866,373 869,373 870,374 873,374 874,375 877,375 878,376 884,376 885,377 886,377 887,378 889,378 890,379 892,379 893,380 895,380 896,381 899,381 900,382 903,382 904,383 907,383 908,384 909,384 910,385 911,385 912,386 913,386 914,387 917,387 918,388 919,388 920,389 921,389 922,390 923,390 924,391 925,391 926,392 928,392 929,393 930,393 931,394 933,394 934,395 935,395 936,396 937,396 938,397 939,397 940,398 941,398 942,399 943,399 944,400 945,400 946,401 947,401 948,402 949,402 951,404 953,404 954,405 955,405 957,407 958,407 960,409 961,409 962,410 963,410 964,411 965,411 967,413 968,413 970,415 971,415 971,210"/><polygon points="296,0 294,2 293,2 293,3 288,8 288,9 287,10 287,14 286,15 286,146 287,147 287,151 288,152 288,153 290,155 290,156 294,160 295,160 297,162 298,162 299,163 300,163 301,164 304,164 305,165 1003,165 1004,164 1008,164 1009,163 1011,163 1013,161 1014,161 1016,159 1017,159 1017,158 1021,154 1021,153 1022,152 1022,149 1023,148 1023,14 1022,13 1022,11 1021,10 1021,9 1020,8 1020,7 1018,5 1018,4 1017,4 1016,3 1016,2 1014,0"/></g></svg>